<svg width="783" height="203" viewBox="0 0 783 203" fill="none" xmlns="http://www.w3.org/2000/svg">
<path d="M757.035 191.802C767.578 191.802 776.125 183.296 776.125 172.803C776.125 162.31 767.578 153.804 757.035 153.804C746.492 153.804 737.946 162.31 737.946 172.803C737.946 183.296 746.492 191.802 757.035 191.802Z" fill="#00B9AE"/>
<path d="M762.65 186.214C758.652 186.214 754.744 185.034 751.42 182.824C748.097 180.613 745.506 177.471 743.976 173.796C742.446 170.12 742.046 166.075 742.826 162.173C743.606 158.271 745.531 154.686 748.358 151.873C751.184 149.06 754.786 147.144 758.707 146.367C762.627 145.591 766.691 145.99 770.385 147.512C774.078 149.035 777.235 151.613 779.456 154.921C781.677 158.229 782.862 162.119 782.862 166.097C782.856 171.431 780.725 176.544 776.935 180.315C773.146 184.087 768.009 186.208 762.65 186.214ZM762.65 148.216C759.096 148.216 755.623 149.265 752.668 151.23C749.714 153.194 747.411 155.987 746.051 159.255C744.691 162.522 744.335 166.117 745.029 169.586C745.722 173.055 747.433 176.241 749.946 178.741C752.458 181.242 755.66 182.945 759.145 183.635C762.63 184.325 766.242 183.971 769.525 182.618C772.808 181.264 775.614 178.972 777.588 176.032C779.563 173.091 780.616 169.634 780.616 166.097C780.611 161.357 778.716 156.812 775.348 153.459C771.98 150.107 767.413 148.222 762.65 148.216V148.216Z" fill="white"/>
<path d="M677.675 161.811H38.475C28.2744 161.806 18.4949 160.153 11.282 157.213C4.06904 154.272 0.0116911 150.286 0 146.128V31.9181C0.0114151 27.76 4.06864 23.7735 11.2816 20.8332C18.4946 17.893 28.2742 16.239 38.475 16.2343H677.675C687.876 16.239 697.656 17.893 704.868 20.8332C712.081 23.7735 716.139 27.76 716.15 31.9181V146.128C716.138 150.286 712.081 154.272 704.868 157.213C697.655 160.153 687.875 161.807 677.675 161.811Z" fill="#00B9AE"/>
<path d="M131.615 89.8396V92.5996H150.055V89.8396H131.615ZM130.615 70.6396V73.4796H150.615V70.6396H130.615ZM138.975 67.3596V96.4796H142.415V67.3596H138.975ZM130.495 96.3196L130.975 99.5596C136.135 99.0396 143.375 98.2796 150.175 97.4796L150.135 94.5596C142.975 95.2796 135.415 95.9196 130.495 96.3196ZM134.815 82.8396H146.735V85.2796H134.815V82.8396ZM134.815 78.0796H146.735V80.4796H134.815V78.0796ZM131.735 75.5996V87.7596H149.895V75.5996H131.735ZM148.255 64.1196C143.975 65.0796 136.855 65.7996 130.895 66.0796C131.255 66.8396 131.615 68.0396 131.775 68.8396C137.775 68.6796 145.135 68.0396 150.015 66.9996L148.255 64.1196ZM150.415 73.0396V76.5196H164.615V73.0396H150.415ZM163.095 73.0396V73.8796C162.735 89.7596 162.335 95.4796 161.375 96.7196C161.015 97.2396 160.615 97.3596 159.975 97.3596C159.215 97.3596 157.535 97.3196 155.695 97.1596C156.295 98.1996 156.695 99.7596 156.775 100.8C158.655 100.88 160.535 100.88 161.735 100.72C162.975 100.52 163.855 100.16 164.615 98.9596C165.935 97.2396 166.295 91.5196 166.735 74.7996C166.735 74.3596 166.735 73.0396 166.735 73.0396H163.095ZM154.815 64.3996C154.775 79.8796 155.095 91.9196 146.255 98.3996C147.135 99.0396 148.415 100.32 148.975 101.2C158.375 93.9996 158.415 80.7996 158.455 64.3996H154.815ZM187.135 86.7196V94.7596H190.655V86.7196H187.135ZM170.975 97.2396V99.8396H207.175V97.2396H170.975ZM171.095 70.1196V72.3196H207.015V70.1196H171.095ZM170.975 82.0796V84.5596H207.215V82.0796H170.975ZM173.975 78.1196V80.2796H204.375V78.1196H173.975ZM175.335 66.2396V68.3996H198.975V74.1996H175.095V76.3596H202.815V66.2396H175.335ZM186.935 63.7596V83.1596H190.775V63.7596H186.935ZM179.255 91.7996H199.015V93.6396H179.255V91.7996ZM179.255 88.1196H199.015V89.8796H179.255V88.1196ZM175.535 86.0796V95.6396H202.855V86.0796H175.535ZM224.295 69.8396V73.3596H246.455V69.8396H224.295ZM225.055 78.8396V82.2796H242.455V78.8396H225.055ZM233.375 63.7996V80.7596H237.095V63.7996H233.375ZM229.495 81.4796L226.095 82.4796C229.655 91.7196 235.935 98.1596 245.535 100.96C246.055 99.9996 247.135 98.4796 247.975 97.7196C238.735 95.3596 232.455 89.4796 229.495 81.4796ZM242.095 78.8396V79.4796C239.415 89.0796 231.375 95.1596 221.975 97.4796C222.695 98.2796 223.615 99.8796 224.015 100.88C234.175 97.8796 242.575 91.3596 245.895 79.7196L243.495 78.7196L242.815 78.8396H242.095ZM210.335 84.5996L211.375 88.2396C215.015 87.2396 219.695 85.9596 224.095 84.6396L223.615 81.1996C218.815 82.5196 213.775 83.8396 210.335 84.5996ZM210.855 71.6796V75.1996H223.735V71.6796H210.855ZM215.775 63.7996V96.5596C215.775 97.1596 215.575 97.3596 215.015 97.3596C214.495 97.3596 212.775 97.3596 211.015 97.3196C211.495 98.3196 212.015 99.8396 212.135 100.8C214.935 100.8 216.695 100.68 217.895 100.12C219.095 99.5196 219.495 98.5596 219.495 96.5996V63.7996H215.775ZM264.095 78.1196V97.1596C264.095 97.6796 263.975 97.8396 263.415 97.8396C262.895 97.8396 261.255 97.8796 259.575 97.7996C260.055 98.6396 260.575 99.9196 260.735 100.8C263.215 100.8 265.015 100.76 266.175 100.28C267.335 99.7596 267.695 98.8796 267.695 97.1596V78.1196H264.095ZM254.935 78.1196V81.3196H266.055V78.1196H254.935ZM271.015 82.5596V95.7196C271.015 99.5196 272.135 100.64 276.375 100.64C277.295 100.64 281.935 100.64 282.895 100.64C286.415 100.64 287.455 99.1596 287.935 93.9196C286.895 93.7196 285.375 93.1196 284.575 92.5196C284.375 96.5996 284.095 97.2796 282.575 97.2796C281.495 97.2796 277.615 97.2796 276.855 97.2796C275.095 97.2796 274.775 97.0796 274.775 95.6796V82.5596H271.015ZM262.175 67.8796C263.975 70.7996 266.135 74.7596 267.015 77.1996L270.295 75.7996C269.295 73.3996 267.095 69.5596 265.255 66.7196L262.175 67.8796ZM273.295 69.0796V72.3596H285.175V69.0796H273.295ZM273.335 86.9996V90.3996H285.575V86.9996H273.335ZM252.695 76.1596C252.695 75.4396 254.895 74.3196 254.895 74.3196V74.2796C257.415 72.0396 260.295 68.4796 262.455 64.9996L258.615 63.7996C257.015 66.9996 254.455 70.1996 253.655 71.0796C252.855 71.9596 252.175 72.5196 251.495 72.6796C251.895 73.6396 252.495 75.3996 252.695 76.1596ZM252.695 76.1596C253.775 75.7196 255.415 75.4796 267.655 74.3596C267.415 73.5996 267.095 72.3196 266.975 71.3596L254.455 72.2796L252.575 73.3996L252.695 76.1596ZM253.135 78.1196V87.5996C253.135 91.0396 252.935 95.3596 250.695 98.4796C251.415 98.9596 252.815 100.32 253.335 101.04C256.135 97.3996 256.615 91.7996 256.615 87.6396V78.1196H253.135ZM256.015 92.9196L257.215 96.1196C259.855 94.5596 262.895 92.6396 265.855 90.7196L265.135 88.3996C261.735 90.1196 258.335 91.8796 256.015 92.9196ZM256.615 84.8796C258.535 86.1996 261.055 88.0396 262.295 89.1996L264.335 87.1596C263.015 86.0796 260.495 84.3196 258.575 83.1196L256.615 84.8796ZM271.015 63.8796V75.9596C271.015 79.8796 272.175 81.3196 276.255 81.3196C277.135 81.3196 282.015 81.3196 283.175 81.3196C284.655 81.3196 286.215 81.2396 286.935 81.0396C286.815 80.1596 286.655 78.7596 286.615 77.7596C285.775 77.9596 284.135 78.0396 283.095 78.0396C281.935 78.0396 277.415 78.0396 276.335 78.0396C275.055 78.0396 274.775 77.5196 274.775 76.0796V63.8796H271.015ZM302.055 67.6396V70.6796H316.255V67.6396H302.055ZM302.815 73.6396V76.6796H315.375V73.6396H302.815ZM316.215 72.7196V76.1196H327.615V72.7196H316.215ZM307.455 63.8396V75.7596H310.735V63.8396H307.455ZM306.295 81.1996H311.775V85.0796H306.295V81.1996ZM303.175 78.4796V87.7596H315.015V78.4796H303.175ZM303.495 89.3196C304.215 91.2796 304.855 93.8796 304.975 95.4796L308.135 94.5996C307.935 93.0396 307.175 90.5196 306.415 88.5596L303.495 89.3196ZM316.095 80.1596C317.095 83.3996 318.015 87.6796 318.255 90.2396L321.255 89.1996C320.975 86.7196 319.975 82.5596 318.855 79.3196L316.095 80.1596ZM311.615 88.3196C311.175 90.4796 310.255 93.5596 309.495 95.4796L312.375 96.2796C313.175 94.4796 314.175 91.7196 315.055 89.1996L311.615 88.3196ZM301.095 96.8796L301.975 100.16C306.055 99.4796 311.655 98.5996 316.895 97.6796L316.695 94.5996C310.935 95.4796 304.975 96.3596 301.095 96.8796ZM321.775 63.9196V96.7596C321.775 97.3196 321.575 97.4796 321.055 97.5196C320.535 97.5196 318.975 97.5196 317.335 97.4396C317.815 98.4396 318.335 100.04 318.455 100.96C320.935 100.96 322.655 100.84 323.775 100.24C324.855 99.6796 325.255 98.6396 325.255 96.7596V63.9196H321.775ZM290.975 72.3196V75.7996H302.095V72.3196H290.975ZM295.375 63.7996V100.92H298.695V63.7996H295.375ZM295.375 74.5996C294.535 80.0396 292.415 86.8396 290.135 90.3596C290.655 91.1596 291.455 92.5196 291.775 93.4396C294.255 89.3996 296.375 81.4796 297.335 75.2396L295.375 74.5996ZM298.495 77.3596L297.135 78.7596C297.975 80.4396 300.175 85.2396 300.895 87.3996L302.695 84.6796C302.095 83.5196 299.215 78.4396 298.495 77.3596ZM331.375 74.1996V78.0396H366.935V74.1996H331.375ZM342.855 92.8396C345.495 95.1996 348.735 98.5196 350.175 100.64L353.495 98.1596C351.935 96.0396 348.615 92.8796 345.975 90.6796L342.855 92.8396ZM351.775 75.9596L348.135 76.8396C351.095 87.9596 356.295 96.6396 365.175 101C365.775 99.8796 367.055 98.3196 368.015 97.4796C359.615 93.8796 354.295 85.7196 351.775 75.9596ZM346.935 63.8396C346.815 74.2396 347.375 90.5196 330.335 97.7596C331.415 98.5596 332.575 99.9596 333.175 100.96C350.855 92.9196 350.895 75.3596 351.055 63.8396H346.935ZM374.615 71.6796C373.895 75.4796 372.415 79.0396 370.255 81.3596C370.975 81.8396 372.175 82.9596 372.655 83.5196C375.015 80.8796 376.775 76.7196 377.735 72.2796L374.615 71.6796ZM370.855 85.1996V88.5196H389.055V85.1996H370.855ZM371.015 67.9596V71.3196H388.815V67.9596H371.015ZM382.495 71.9196C381.735 75.4396 380.335 78.7196 378.255 80.8796C378.975 81.3596 380.175 82.3996 380.695 82.9196C382.975 80.4396 384.655 76.6396 385.575 72.4796L382.495 71.9196ZM374.135 76.7996C375.455 77.8796 376.975 79.3996 377.655 80.4396L379.575 78.3596C378.855 77.3596 377.255 75.9196 375.975 74.9596L374.135 76.7996ZM381.855 77.1996C383.415 78.8396 385.335 81.1196 386.215 82.5596L388.495 80.6396C387.535 79.2796 385.575 77.0796 384.015 75.5596L381.855 77.1996ZM391.735 79.4396V82.6396H406.815V79.4396H391.735ZM391.775 87.3996V90.6396H406.855V87.3996H391.775ZM391.575 95.5196V98.9596H407.495V95.5196H391.575ZM393.375 63.9196C391.975 69.2396 389.655 74.6796 386.855 78.1596C387.655 78.7196 389.095 79.9596 389.695 80.5996C392.575 76.6796 395.215 70.6796 396.895 64.7596L393.375 63.9196ZM394.175 71.3596H394.095L390.775 74.9596V100.84H394.175V74.7596H407.255V71.3596H394.175ZM398.815 72.9196V97.2796H402.215V72.9196H398.815ZM377.255 64.6796C377.975 66.0796 378.815 67.9996 379.175 69.1996L382.855 68.1196C382.455 66.9196 381.575 65.1196 380.775 63.7596L377.255 64.6796ZM397.615 65.3996C398.615 67.1596 399.655 69.5196 400.055 71.0396L403.535 69.7596C403.055 68.2396 401.975 65.9996 400.895 64.3196L397.615 65.3996ZM374.295 90.5596C373.615 92.9996 372.455 95.4796 370.895 97.1996C371.695 97.5596 373.055 98.3596 373.655 98.7996C375.215 96.9196 376.615 94.0396 377.415 91.1596L374.295 90.5596ZM383.135 91.3996C384.375 93.5196 385.695 96.3996 386.255 98.2396L389.215 97.0796C388.655 95.2796 387.255 92.5196 385.935 90.3996L383.135 91.3996ZM378.575 82.5196V100.8H382.135V82.5196H378.575ZM418.815 63.4396C416.935 67.3196 413.695 70.9996 410.375 73.3596C411.095 74.0396 412.215 75.6796 412.615 76.3596C416.255 73.5196 419.855 69.0796 422.135 64.5196L418.815 63.4396ZM418.135 68.2396L417.055 71.5996H445.695V68.2396H418.135ZM412.495 77.6396V81.0396H446.015V77.6396H412.495ZM411.215 87.1196V90.5196H446.855V87.1196H411.215ZM424.055 73.5596V88.9596H427.255V73.5596H424.055ZM417.095 73.5596V89.0796H420.495V73.5596H417.095ZM431.215 73.5596V89.0796H434.415V73.5596H431.215ZM438.255 73.5596V89.0796H441.735V73.5596H438.255ZM422.495 93.1196C422.935 95.5596 423.255 98.7596 423.255 100.68L426.975 100.12C426.935 98.2796 426.495 95.1596 425.975 92.7596L422.495 93.1196ZM430.695 93.0396C431.655 95.4796 432.615 98.6396 432.935 100.56L436.695 99.7996C436.335 97.8796 435.255 94.7596 434.215 92.4396L430.695 93.0396ZM438.895 92.9196C440.455 95.4796 442.335 98.8796 443.095 100.96L446.815 99.3196C445.895 97.2796 443.975 93.9596 442.375 91.5596L438.895 92.9196ZM415.695 91.7596C414.615 94.4796 412.855 97.6396 411.415 99.5596L415.095 101.04C416.535 98.8396 418.255 95.4396 419.335 92.7196L415.695 91.7596ZM475.095 86.0396V89.2796H485.455V86.0396H475.095ZM473.495 79.7996V97.1996L477.015 98.5996V79.7996H473.495ZM468.335 87.7996L465.535 88.8396C468.135 98.3196 472.895 100.52 480.055 100.52H486.535C486.655 99.5196 487.175 97.8796 487.655 97.0796C486.255 97.0796 481.375 97.1196 480.375 97.0796C474.695 97.0796 470.335 95.4796 468.335 87.7996ZM468.455 63.7996C467.375 69.7996 465.055 74.9596 461.335 78.1596C462.175 78.7196 463.575 80.0796 464.095 80.7596C468.055 77.0396 470.695 71.2396 472.055 64.3996L468.455 63.7996ZM479.175 63.8396C478.335 70.0796 476.175 75.1196 472.175 78.1196C472.975 78.6396 474.535 79.7596 475.135 80.3996C479.215 76.8796 481.695 71.3596 482.775 64.2796L479.175 63.8396ZM467.695 72.3196C469.455 73.6796 471.735 75.6396 472.815 76.8796L474.615 73.9596C473.495 72.7996 471.175 70.9996 469.415 69.7196L467.695 72.3196ZM477.975 72.3996C480.615 74.7596 483.815 78.0796 485.295 80.1996L487.895 77.6796C486.335 75.6396 483.015 72.3996 480.415 70.1996L477.975 72.3996ZM465.615 82.5596C465.255 89.6396 463.855 95.1196 459.895 98.4396C460.695 98.9596 462.215 100.24 462.775 100.88C466.975 96.9196 468.735 90.9196 469.295 82.8396L465.615 82.5596ZM459.255 72.1596C457.015 76.2796 453.335 80.3196 449.775 82.9596C450.415 83.7596 451.495 85.5996 451.855 86.3996C455.775 83.1996 459.935 78.2396 462.615 73.3996L459.255 72.1596ZM458.415 63.7996C456.695 66.5596 453.215 69.9596 450.215 72.0396C450.815 72.7196 451.775 74.0396 452.255 74.7996C455.615 72.3596 459.375 68.5596 461.775 65.1596L458.415 63.7996ZM455.775 80.1196V101.04H459.335V77.1596L458.935 76.9596L455.775 80.1196ZM491.175 66.7596V70.5596H526.935V66.7596H491.175ZM506.215 69.9596V100.88H510.255V69.9596H506.215ZM508.375 79.5596C513.095 82.0396 519.255 85.7996 522.215 88.3196L524.975 84.8796C521.815 82.3996 515.535 78.8396 510.935 76.5996L508.375 79.5596ZM560.695 63.7996C554.375 65.6396 542.975 66.6796 533.415 67.1196C533.775 67.9596 534.215 69.4796 534.335 70.4396C544.055 70.0796 555.775 69.0396 563.455 66.9196L560.695 63.7996ZM533.615 75.1196V78.7596H564.975V75.1196H533.615ZM530.895 84.4796V88.1996H567.295V84.4796H530.895ZM547.135 68.6796V96.0396C547.135 96.8396 546.775 97.1196 545.895 97.1596C544.975 97.1596 541.735 97.1996 538.535 97.0796C539.135 98.0796 539.855 99.7596 540.095 100.84C544.255 100.88 547.015 100.8 548.695 100.2C550.375 99.5996 551.055 98.5196 551.055 96.0796V68.6796H547.135ZM576.135 88.1996H580.215C579.535 82.1996 586.655 80.0396 586.655 74.2396C586.655 69.5196 583.455 66.8796 578.775 66.8796C575.415 66.8796 572.735 68.4796 570.775 70.7196L573.375 73.1196C574.735 71.5996 576.375 70.6796 578.255 70.6796C580.775 70.6796 582.175 72.3196 582.175 74.5596C582.175 78.8796 575.175 81.4396 576.135 88.1996ZM578.255 98.1196C579.975 98.1196 581.335 96.7596 581.335 94.8796C581.335 92.9596 579.975 91.6396 578.255 91.6396C576.495 91.6396 575.175 92.9596 575.175 94.8796C575.175 96.7596 576.495 98.1196 578.255 98.1196Z" fill="white"/>
<path d="M697.906 145.981H55.6079C44.9925 145.976 34.8153 144.275 27.309 141.251C19.8027 138.227 15.5804 134.128 15.5684 129.851V16.4321C15.5804 12.1557 19.8027 8.05577 27.309 5.03188C34.8153 2.00799 44.9925 0.307055 55.6079 0.302246H697.906C708.521 0.307043 718.699 2.00797 726.205 5.03186C733.711 8.05576 737.934 12.1557 737.946 16.4321V129.851C737.934 134.128 733.711 138.227 726.205 141.251C718.699 144.275 708.521 145.976 697.906 145.981V145.981ZM55.6079 2.52347C46.4543 2.52765 37.6786 3.99436 31.2061 6.60183C24.7335 9.2093 21.0926 12.7446 21.0821 16.4321V129.851C21.0926 133.539 24.7335 137.074 31.2061 139.681C37.6786 142.289 46.4543 143.756 55.6079 143.76H697.906C707.06 143.756 715.835 142.289 722.308 139.681C728.781 137.074 732.422 133.539 732.432 129.851V16.4321C732.422 12.7446 728.781 9.20929 722.308 6.60183C715.835 3.99436 707.06 2.52765 697.906 2.52347H55.6079Z" fill="white"/>
</svg>
