<svg width="692" height="188" viewBox="0 0 692 188" fill="none" xmlns="http://www.w3.org/2000/svg">
<path d="M16.8672 188C26.1827 188 33.7344 179.999 33.7344 170.129C33.7344 160.259 26.1827 152.258 16.8672 152.258C7.55169 152.258 0 160.259 0 170.129C0 179.999 7.55169 188 16.8672 188Z" fill="#6F7585"/>
<path d="M657.202 152.402H92.4115C83.3984 152.397 74.7575 150.843 68.3843 148.079C62.0112 145.315 58.4262 141.568 58.416 137.66V30.303C58.4262 26.3945 62.0112 22.6474 68.3843 19.8836C74.7575 17.1199 83.3984 15.5653 92.4115 15.5609H657.202C666.215 15.5653 674.856 17.1199 681.229 19.8836C687.602 22.6474 691.187 26.3945 691.198 30.303V137.659C691.187 141.568 687.602 145.315 681.229 148.079C674.856 150.843 666.215 152.397 657.202 152.402V152.402Z" fill="#6F7585"/>
<path d="M29.5433 182.738C25.6349 182.738 21.8143 181.629 18.5646 179.549C15.3149 177.47 12.7821 174.515 11.2864 171.057C9.79078 167.6 9.39946 163.795 10.1619 160.124C10.9244 156.454 12.8065 153.082 15.5701 150.436C18.3337 147.789 21.8548 145.987 25.6881 145.257C29.5213 144.527 33.4946 144.902 37.1055 146.334C40.7164 147.766 43.8026 150.191 45.974 153.303C48.1454 156.415 49.3043 160.073 49.3043 163.816C49.2984 168.833 47.2146 173.642 43.5099 177.19C39.8053 180.737 34.7824 182.733 29.5433 182.738V182.738ZM29.5433 146.996C26.0692 146.996 22.6731 147.982 19.7845 149.831C16.8958 151.679 14.6445 154.306 13.315 157.379C11.9855 160.453 11.6376 163.835 12.3154 167.097C12.9932 170.36 14.6661 173.357 17.1227 175.709C19.5793 178.062 22.7091 179.664 26.1165 180.313C29.5238 180.962 33.0556 180.629 36.2653 179.355C39.4749 178.082 42.2183 175.927 44.1484 173.161C46.0785 170.395 47.1087 167.143 47.1087 163.816C47.1034 159.357 45.2511 155.081 41.9581 151.928C38.6651 148.775 34.2003 147.001 29.5433 146.996V146.996Z" fill="#6F7585"/>
<path d="M643.325 136.936H119.163C110.5 136.931 102.195 135.333 96.069 132.49C89.9433 129.647 86.4976 125.794 86.4878 121.774V15.1619C86.4977 11.1421 89.9434 7.2882 96.0691 4.44578C102.195 1.60336 110.5 0.00450932 119.163 0H643.325C651.988 0.00450932 660.293 1.60336 666.419 4.44578C672.545 7.2882 675.99 11.1421 676 15.1619V121.774C675.99 125.794 672.544 129.647 666.419 132.49C660.293 135.333 651.988 136.931 643.325 136.936V136.936ZM119.163 2.08792C111.693 2.09184 104.532 3.47051 99.2494 5.9215C93.9673 8.37248 90.996 11.6956 90.9874 15.1619V121.774C90.9958 125.24 93.9669 128.563 99.2491 131.014C104.531 133.465 111.693 134.844 119.163 134.848H643.325C650.795 134.844 657.957 133.465 663.239 131.014C668.521 128.563 671.492 125.24 671.5 121.774V15.1619C671.492 11.6956 668.521 8.37251 663.238 5.92153C657.956 3.47054 650.795 2.09185 643.325 2.08792H119.163Z" fill="white"/>
<path d="M204.384 63.815V67.175H231.344V63.815H204.384ZM209.704 80.815V83.215H212.864V80.815H209.704ZM215.864 72.535V97.215H219.224V72.535H215.864ZM226.944 75.735V94.135C226.944 94.575 226.824 94.695 226.384 94.695C225.944 94.735 224.464 94.735 222.984 94.695C223.344 95.495 223.744 96.655 223.864 97.495C226.264 97.495 227.904 97.495 228.944 97.015C230.024 96.535 230.344 95.735 230.344 94.135V75.735H226.944ZM205.144 75.735V97.535H208.384V78.935H228.624V75.735H205.144ZM195.984 63.575C198.224 64.695 200.984 66.495 202.264 67.815L204.544 64.775C203.144 63.495 200.384 61.855 198.144 60.855L195.984 63.575ZM194.344 74.335C196.624 75.335 199.424 77.015 200.784 78.255L202.984 75.175C201.584 73.935 198.744 72.455 196.424 71.535L194.344 74.335ZM195.104 95.135L198.504 97.135C200.224 93.335 202.104 88.535 203.544 84.295L200.504 82.335C198.904 86.895 196.704 92.055 195.104 95.135ZM210.144 60.415V73.295H225.304V60.415H221.584V70.055H213.744V60.415H210.144ZM211.184 80.815V81.975H211.704C211.904 86.535 212.864 90.215 214.704 92.255C215.064 91.695 215.904 90.935 216.384 90.655C214.624 88.935 213.744 85.335 213.584 80.815H211.184ZM211.144 84.535C210.904 86.935 210.064 89.535 208.264 91.055C208.744 91.375 209.464 92.135 209.784 92.615C211.984 90.695 212.944 87.655 213.304 84.535H211.144ZM220.464 80.815V83.215H223.504V80.815H220.464ZM221.904 80.815V81.975H222.424C222.624 86.535 223.704 90.135 225.624 92.175C226.024 91.615 226.864 90.895 227.384 90.535C225.504 88.895 224.504 85.335 224.344 80.815H221.904ZM221.904 84.495C221.664 86.815 220.824 89.295 218.944 90.695C219.504 91.015 220.184 91.775 220.504 92.255C222.784 90.415 223.744 87.535 224.104 84.495H221.904ZM253.024 82.015V85.575H268.544V82.015H253.024ZM244.384 83.975L241.264 85.175C245.064 95.055 251.904 97.135 261.664 97.135H270.384C270.584 96.095 271.184 94.335 271.744 93.455C269.784 93.495 263.344 93.535 261.864 93.495C253.784 93.495 247.264 91.975 244.384 83.975ZM251.304 75.375V93.975L255.224 95.215V75.375H251.304ZM243.304 65.935H263.384V72.775H243.304V65.935ZM239.544 62.335V76.375H267.344V62.335H239.544ZM241.624 79.095C241.024 84.775 239.144 91.455 234.584 94.975C235.384 95.575 236.664 96.815 237.264 97.535C242.344 93.575 244.584 86.175 245.584 79.575L241.624 79.095ZM275.704 63.215V67.095H310.344V63.215H275.704ZM295.184 75.655C299.784 78.935 305.744 83.735 308.504 86.855L311.664 83.935C308.704 80.815 302.584 76.255 298.064 73.215L295.184 75.655ZM294.064 64.615C290.504 71.935 283.224 79.655 274.584 83.855C275.384 84.735 276.584 86.255 277.184 87.255C286.304 82.455 293.664 74.455 298.224 66.095L294.064 64.615ZM290.944 73.335V97.535H295.064V69.255L290.944 73.335ZM331.184 74.495V92.935C331.184 93.615 330.904 93.855 330.024 93.855C329.104 93.895 325.944 93.935 322.824 93.815C323.424 94.855 324.144 96.535 324.344 97.615C328.304 97.655 331.064 97.575 332.824 97.015C334.584 96.415 335.144 95.335 335.144 93.015V74.495H331.184ZM316.824 63.455V67.175H345.304V63.455H316.824ZM344.184 63.455V64.375C341.664 67.535 336.024 72.015 331.184 74.495C331.944 75.135 333.144 76.375 333.704 77.175C339.104 74.415 345.144 69.735 349.064 65.455L346.064 63.215L345.224 63.455H344.184ZM362.944 69.655V72.895H383.144V69.655H362.944ZM364.904 76.575V92.455H368.384V76.575H364.904ZM366.824 76.575V79.735H377.624V86.455H366.824V89.615H381.144V76.575H366.824ZM356.304 62.455V97.655H359.984V66.055H388.264V62.455H356.304ZM386.064 62.455V93.015C386.064 93.695 385.824 93.935 385.104 93.975C384.424 94.015 382.104 94.015 379.744 93.935C380.344 94.895 380.904 96.615 381.064 97.615C384.504 97.655 386.584 97.535 387.944 96.935C389.304 96.335 389.784 95.175 389.784 93.055V62.455H386.064ZM410.944 60.455V93.695C410.944 94.415 410.704 94.655 409.944 94.695C409.264 94.695 406.864 94.735 404.704 94.655C405.184 95.455 405.784 96.815 405.984 97.695C409.344 97.695 411.464 97.655 412.864 97.175C414.224 96.615 414.784 95.775 414.784 93.695V60.455H410.944ZM395.584 63.415V66.455H430.504V63.415H395.584ZM403.344 71.015H422.664V73.455H403.344V71.015ZM399.744 68.495V75.975H426.544V68.495H399.744ZM398.664 78.335V81.015H423.344V93.375H427.184V78.335H398.664ZM394.744 83.335V86.255H431.344V83.335H394.744ZM398.304 88.775V91.615H425.384V88.775H398.304ZM438.464 66.935V70.255H447.224V90.055H438.464V93.415H450.664V66.935H438.464ZM436.224 66.935V96.495H439.704V66.935H436.224ZM438.264 77.855V81.175H448.944V77.855H438.264ZM442.184 60.415C441.904 62.535 441.224 65.575 440.584 67.575L443.624 68.295C444.424 66.455 445.424 63.655 446.264 61.055L442.184 60.415ZM456.184 66.735V70.215H468.224V66.735H456.184ZM466.904 66.735V67.495C466.424 84.695 465.824 91.455 464.504 92.855C464.064 93.415 463.584 93.535 462.784 93.535C461.824 93.535 459.424 93.495 456.824 93.295C457.504 94.295 457.984 95.895 458.064 96.975C460.344 97.055 462.744 97.135 464.184 96.975C465.704 96.775 466.704 96.375 467.664 95.055C469.304 93.015 469.824 86.735 470.384 68.535C470.424 68.055 470.424 66.735 470.424 66.735H466.904ZM456.704 60.375C455.424 65.815 453.224 71.295 450.504 74.775C451.384 75.255 452.944 76.335 453.624 76.935C456.344 73.135 458.824 67.175 460.344 61.215L456.704 60.375ZM454.824 77.615C456.904 80.535 459.504 84.495 460.664 86.935L463.904 84.975C462.624 82.615 459.904 78.735 457.784 75.935L454.824 77.615ZM494.744 66.255V69.735H510.784V66.255H494.744ZM490.184 78.495V82.135H511.664V78.495H490.184ZM499.104 67.735V97.575H502.944V67.735H499.104ZM494.784 60.375C493.664 65.615 491.544 70.815 488.744 74.095C489.704 74.535 491.344 75.575 492.104 76.175C494.864 72.575 497.184 66.935 498.584 61.135L494.784 60.375ZM476.304 72.655V75.575H488.984V72.655H476.304ZM476.304 78.055V80.975H488.984V78.055H476.304ZM474.384 67.095V70.175H490.544V67.095H474.384ZM478.064 83.495V86.575H485.504V92.335H478.064V95.415H488.864V83.495H478.064ZM476.224 83.495V97.135H479.544V83.495H476.224ZM479.584 61.655C480.544 63.415 481.304 65.775 481.464 67.335L484.424 66.135C484.184 64.615 483.344 62.295 482.344 60.615L479.584 61.655ZM517.344 62.215V65.495H533.424V62.215H517.344ZM521.664 85.455C521.144 88.215 520.344 91.015 519.104 92.935C519.824 93.255 521.144 93.935 521.704 94.375C522.944 92.295 523.984 89.095 524.544 86.055L521.664 85.455ZM529.824 86.215C530.744 88.295 531.744 91.095 532.104 92.775L534.744 91.735C534.344 90.095 533.304 87.415 532.304 85.375L529.824 86.215ZM516.304 62.215V77.335C516.304 82.815 516.104 90.055 513.904 95.095C514.624 95.415 516.064 96.455 516.624 97.015C519.144 91.615 519.544 83.215 519.544 77.295V62.215H516.304ZM524.304 77.615H530.304V80.935H524.304V77.615ZM524.304 71.815H530.304V75.055H524.304V71.815ZM521.344 69.095V83.655H533.384V69.095H521.344ZM525.784 83.015V94.215C525.784 94.575 525.664 94.695 525.264 94.695C524.864 94.735 523.744 94.735 522.424 94.695C522.824 95.495 523.304 96.735 523.424 97.575C525.384 97.575 526.704 97.535 527.664 97.055C528.664 96.535 528.864 95.735 528.864 94.255V83.015H525.784ZM525.664 64.495C525.584 66.095 525.184 68.495 524.864 70.095L527.744 70.655C528.224 69.175 528.824 67.015 529.384 64.935L525.664 64.495ZM534.224 62.215V65.415H551.264V62.215H534.224ZM538.664 77.695H546.944V81.015H538.664V77.695ZM538.664 83.695H546.944V87.095H538.664V83.695ZM538.664 71.695H546.944V74.975H538.664V71.695ZM535.464 68.855V89.935H550.304V68.855H535.464ZM540.984 63.855C540.864 65.735 540.424 68.455 540.024 70.255L543.064 70.815C543.584 69.135 544.224 66.655 544.864 64.295L540.984 63.855ZM538.664 90.495C537.224 92.135 534.384 94.175 531.904 95.295C532.624 95.935 533.704 96.975 534.264 97.655C536.784 96.455 539.824 94.335 541.704 92.295L538.664 90.495ZM543.824 92.295C545.744 93.855 548.184 96.135 549.304 97.615L552.184 95.655C550.944 94.175 548.464 92.015 546.584 90.535L543.824 92.295ZM560.104 84.855H564.184C563.504 78.855 570.624 76.695 570.624 70.895C570.624 66.175 567.424 63.535 562.744 63.535C559.384 63.535 556.704 65.135 554.744 67.375L557.344 69.775C558.704 68.255 560.344 67.335 562.224 67.335C564.744 67.335 566.144 68.975 566.144 71.215C566.144 75.535 559.144 78.095 560.104 84.855ZM562.224 94.775C563.944 94.775 565.304 93.415 565.304 91.535C565.304 89.615 563.944 88.295 562.224 88.295C560.464 88.295 559.144 89.615 559.144 91.535C559.144 93.415 560.464 94.775 562.224 94.775Z" fill="white"/>
</svg>
