<svg width="707" height="155" viewBox="0 0 707 155" fill="none" xmlns="http://www.w3.org/2000/svg">
<path d="M20.0342 33.0249C31.0988 33.0249 40.0684 26.8943 40.0684 19.3317C40.0684 11.7691 31.0988 5.63843 20.0342 5.63843C8.96962 5.63843 0 11.7691 0 19.3317C0 26.8943 8.96962 33.0249 20.0342 33.0249Z" fill="#B99BF1"/>
<path d="M25.9266 28.9975C21.7311 28.9975 17.6298 28.1471 14.1414 26.554C10.653 24.9609 7.93414 22.6965 6.3286 20.0472C4.72306 17.3979 4.30297 14.4827 5.12147 11.6702C5.93997 8.85769 7.96028 6.27427 10.9269 4.24658C13.8936 2.2189 17.6733 0.838032 21.7882 0.278595C25.9031 -0.280842 30.1682 0.00628431 34.0443 1.10366C37.9204 2.20103 41.2334 4.05937 43.5643 6.44367C45.8952 8.82798 47.1393 11.6312 47.1393 14.4987C47.1329 18.3427 44.896 22.028 40.9192 24.7461C36.9424 27.4642 31.5506 28.9931 25.9266 28.9975ZM25.9266 1.61097C22.1973 1.61097 18.5517 2.36683 15.4509 3.78295C12.3501 5.19908 9.9333 7.21188 8.50616 9.56681C7.07901 11.9217 6.70561 14.513 7.43316 17.013C8.16071 19.513 9.95653 21.8094 12.5936 23.6118C15.2306 25.4141 18.5903 26.6416 22.248 27.1389C25.9057 27.6361 29.6969 27.3809 33.1424 26.4055C36.5878 25.43 39.5327 23.7782 41.6046 21.6588C43.6764 19.5394 44.7823 17.0477 44.7823 14.4987C44.7766 11.0819 42.7882 7.8061 39.2533 5.39001C35.7184 2.97393 30.9257 1.61486 25.9266 1.61097V1.61097Z" fill="white"/>
<path d="M658.569 155H78.4463C69.1885 154.997 60.3129 153.805 53.7666 151.686C47.2203 149.566 43.538 146.693 43.5273 143.696V61.3808C43.5377 58.3839 47.2199 55.5107 53.7663 53.3915C60.3126 51.2724 69.1884 50.0803 78.4463 50.0769H658.569C667.827 50.0803 676.703 51.2724 683.249 53.3915C689.796 55.5107 693.478 58.3839 693.488 61.3808V143.696C693.477 146.693 689.795 149.566 683.249 151.686C676.702 153.805 667.827 154.997 658.569 155Z" fill="#9C71EC"/>
<path d="M670.661 145.462H96.0859C86.5897 145.458 77.4856 144.233 70.7708 142.055C64.056 139.877 60.2788 136.924 60.2681 133.844V52.1558C60.2788 49.0757 64.056 46.1228 70.7708 43.9449C77.4856 41.767 86.5897 40.5419 96.0859 40.5385H670.661C680.157 40.5419 689.261 41.767 695.976 43.9449C702.691 46.1228 706.468 49.0757 706.479 52.1558V133.844C706.468 136.924 702.691 139.877 695.976 142.055C689.261 144.233 680.157 145.458 670.661 145.462V145.462ZM96.0859 42.1383C87.8975 42.1413 80.0471 43.1976 74.2569 45.0756C68.4668 46.9536 65.2098 49.4999 65.2004 52.1558V133.844C65.2098 136.5 68.4668 139.046 74.2569 140.924C80.0471 142.802 87.8975 143.859 96.0859 143.862H670.661C678.849 143.859 686.7 142.802 692.49 140.924C698.28 139.046 701.537 136.5 701.547 133.844V52.1558C701.537 49.4999 698.28 46.9536 692.49 45.0756C686.7 43.1976 678.849 42.1413 670.661 42.1383H96.0859Z" fill="white"/>
<path d="M142.55 123.271L144.79 125.151C146.87 122.591 149.23 119.431 151.19 116.551L149.27 114.751C147.11 117.871 144.39 121.231 142.55 123.271ZM140.95 111.791C143.39 112.351 146.27 113.511 147.75 114.551L149.23 112.391C147.67 111.311 144.71 110.231 142.31 109.791L140.95 111.791ZM144.19 106.751C146.51 107.471 149.39 108.791 150.79 109.911L152.31 107.791C150.83 106.671 147.95 105.431 145.63 104.831L144.19 106.751ZM143.39 92.1108V94.4708H175.27V92.1108H143.39ZM145.39 97.0308V99.3108H173.31V97.0308H145.39ZM141.99 101.991V104.351H176.71V101.991H141.99ZM157.15 108.151V110.631H173.79V108.151H157.15ZM157.71 93.3908V103.151H160.79V93.3908H157.71ZM149.27 89.1908C150.39 90.4708 151.55 92.2308 152.03 93.3908L154.79 92.2708C154.27 91.1108 153.07 89.4308 151.87 88.2308L149.27 89.1908ZM166.43 88.1908C165.79 89.4308 164.63 91.2708 163.75 92.4708L166.23 93.2708C167.27 92.1908 168.51 90.5908 169.59 88.9908L166.43 88.1908ZM164.11 108.991H162.55V112.391C162.55 114.271 161.07 120.231 150.67 122.751C151.19 123.351 151.99 124.431 152.31 125.031C160.43 122.951 163.43 118.311 164.07 115.911C164.79 118.351 167.83 123.031 175.91 125.071C176.27 124.431 177.07 123.271 177.59 122.591C167.07 120.151 165.59 114.191 165.59 112.391V108.991H164.11ZM157.63 104.271C156.43 107.991 154.27 111.551 151.67 113.871C152.35 114.271 153.59 115.111 154.11 115.551C156.71 113.031 159.11 109.111 160.47 104.951L157.63 104.271ZM172.99 108.151V108.551C172.23 110.871 171.03 113.671 170.11 115.391L172.63 115.991C173.67 114.111 174.95 111.151 175.99 108.511L173.91 108.031L173.47 108.151H172.99ZM189.31 102.391H209.31V104.951H189.31V102.391ZM189.31 97.9108H209.31V100.431H189.31V97.9108ZM186.51 95.8708V106.991H212.19V95.8708H186.51ZM181.43 109.151V111.591H217.19V109.151H181.43ZM191.11 88.2708V95.1108H194.03V88.2708H191.11ZM204.43 88.2708V95.1108H207.39V88.2708H204.43ZM193.79 106.191C192.11 110.231 187.91 114.351 180.79 116.871C181.43 117.311 182.31 118.271 182.71 118.991C190.15 116.031 194.55 111.551 196.87 106.671L193.79 106.191ZM205.99 109.871L203.71 110.791C206.39 114.311 211.31 117.591 215.75 119.151C216.15 118.471 216.99 117.471 217.59 116.911C213.23 115.671 208.43 112.831 205.99 109.871ZM195.55 112.511V122.071C195.55 122.471 195.39 122.591 194.95 122.631C194.51 122.631 192.99 122.631 191.31 122.591C191.71 123.311 192.11 124.311 192.23 124.991C194.51 125.031 196.03 124.991 196.99 124.631C197.99 124.191 198.27 123.511 198.27 122.151V112.511H195.55ZM190.63 115.191C189.63 117.831 187.79 120.551 185.07 122.071L187.19 123.751C190.11 121.951 191.83 118.991 192.95 116.111L190.63 115.191ZM199.11 116.511C200.35 118.631 201.59 121.431 201.95 123.231L204.31 122.391C203.91 120.631 202.63 117.831 201.35 115.791L199.11 116.511ZM204.11 115.551C206.67 117.951 209.51 121.311 210.71 123.511L213.19 122.191C211.87 119.951 208.95 116.671 206.43 114.431L204.11 115.551ZM181.79 90.7108V93.1908H198.71V90.7108H181.79ZM200.07 90.7108V93.1908H216.95V90.7108H200.07ZM243.03 93.0708V115.231H245.95V93.0708H243.03ZM252.83 88.9908V121.071C252.83 121.831 252.51 122.071 251.75 122.071C250.99 122.111 248.51 122.151 245.63 122.031C246.11 122.911 246.59 124.271 246.75 125.071C250.43 125.111 252.67 125.031 253.99 124.511C255.27 124.031 255.79 123.111 255.79 121.071V88.9908H252.83ZM228.19 107.511V110.191H237.67V107.511H228.19ZM236.39 107.511V108.031C235.99 117.591 235.59 121.151 234.83 121.991C234.47 122.351 234.11 122.431 233.43 122.431C232.71 122.431 230.83 122.431 228.83 122.231C229.31 122.951 229.63 124.071 229.67 124.871C231.63 124.991 233.59 124.991 234.63 124.911C235.79 124.791 236.55 124.551 237.19 123.751C238.31 122.471 238.71 118.831 239.15 108.791C239.19 108.391 239.19 107.511 239.19 107.511H236.39ZM225.83 92.7908H236.07V100.471H225.83V92.7908ZM223.11 90.1108V103.231H238.95V90.1108H223.11ZM227.51 102.191C227.15 109.711 226.31 118.471 220.63 123.071C221.35 123.511 222.27 124.431 222.71 125.151C228.87 119.991 229.99 110.631 230.47 102.191H227.51ZM277.59 88.3908C277.43 94.5508 277.67 114.111 260.99 122.551C261.91 123.191 262.91 124.111 263.43 124.911C280.43 115.791 280.75 95.4708 280.91 88.3908H277.59ZM280.55 93.3108L277.67 93.6308C278.23 97.1108 279.87 117.351 295.71 124.751C296.15 123.911 297.03 122.871 297.91 122.191C282.55 115.351 280.91 96.1908 280.55 93.3108ZM301.87 97.7108V124.951H304.19V100.271H314.87V124.391H317.31V97.7108H301.87ZM305.87 113.191V115.591H313.27V113.191H305.87ZM302.91 119.671V122.071H316.31V119.671H302.91ZM301.15 89.9508V92.5508H317.71V89.9508H301.15ZM306.15 90.8308V99.5908H308.31V90.8308H306.15ZM310.67 90.8308V99.5908H312.87V90.8308H310.67ZM306.67 99.5508V103.311C306.67 105.351 306.31 107.831 303.95 109.831C304.35 110.031 305.03 110.591 305.31 110.951C307.79 108.751 308.39 105.671 308.39 103.311V99.5508H306.67ZM310.59 99.5508V106.591C310.59 108.511 311.07 108.871 312.67 108.871C312.95 108.871 314.31 108.871 314.63 108.871C315.71 108.871 316.27 108.511 316.47 107.671C315.95 107.511 315.27 107.351 314.91 107.031C314.83 107.111 314.75 107.111 314.27 107.111C313.99 107.111 313.03 107.111 312.83 107.111C312.35 107.111 312.31 107.031 312.31 106.591V99.5508H310.59ZM321.47 94.6708V97.3508H336.91V94.6708H321.47ZM318.75 103.711V106.391H337.87V103.711H318.75ZM321.39 120.351V123.071H335.83V120.351H321.39ZM320.19 109.871V124.951H322.95V112.591H333.63V124.831H336.51V109.871H320.19ZM327.35 88.2708V105.471H330.15V88.2708H327.35ZM321.87 89.5908C321.27 93.7108 320.11 97.9108 318.43 100.711C319.15 100.991 320.39 101.631 320.95 102.031C322.59 99.1108 323.91 94.5508 324.67 90.1108L321.87 89.5908ZM341.87 97.7108V124.951H344.19V100.271H354.87V124.391H357.31V97.7108H341.87ZM345.87 113.191V115.591H353.27V113.191H345.87ZM342.91 119.671V122.071H356.31V119.671H342.91ZM341.15 89.9508V92.5508H357.71V89.9508H341.15ZM346.15 90.8308V99.5908H348.31V90.8308H346.15ZM350.67 90.8308V99.5908H352.87V90.8308H350.67ZM346.67 99.5508V103.311C346.67 105.351 346.31 107.831 343.95 109.831C344.35 110.031 345.03 110.591 345.31 110.951C347.79 108.751 348.39 105.671 348.39 103.311V99.5508H346.67ZM350.59 99.5508V106.591C350.59 108.511 351.07 108.871 352.67 108.871C352.95 108.871 354.31 108.871 354.63 108.871C355.71 108.871 356.27 108.511 356.47 107.671C355.95 107.511 355.27 107.351 354.91 107.031C354.83 107.111 354.75 107.111 354.27 107.111C353.99 107.111 353.03 107.111 352.83 107.111C352.35 107.111 352.31 107.031 352.31 106.591V99.5508H350.59ZM361.47 94.6708V97.3508H376.91V94.6708H361.47ZM358.75 103.711V106.391H377.87V103.711H358.75ZM361.39 120.351V123.071H375.83V120.351H361.39ZM360.19 109.871V124.951H362.95V112.591H373.63V124.831H376.51V109.871H360.19ZM367.35 88.2708V105.471H370.15V88.2708H367.35ZM361.87 89.5908C361.27 93.7108 360.11 97.9108 358.43 100.711C359.15 100.991 360.39 101.631 360.95 102.031C362.59 99.1108 363.91 94.5508 364.67 90.1108L361.87 89.5908ZM384.55 94.6708V97.3508H393.91V118.111H384.55V120.831H396.71V94.6708H384.55ZM382.75 94.6708V124.031H385.55V94.6708H382.75ZM384.35 105.791V108.471H395.39V105.791H384.35ZM388.87 88.1508C388.55 90.2308 387.79 93.2708 387.11 95.1908L389.51 95.7908C390.31 93.9908 391.31 91.2308 392.11 88.7508L388.87 88.1508ZM402.39 94.5508V97.3508H414.67V94.5508H402.39ZM413.63 94.5508V95.1908C413.07 112.831 412.43 119.471 411.11 120.911C410.67 121.431 410.19 121.551 409.39 121.551C408.47 121.551 406.07 121.511 403.47 121.311C404.03 122.111 404.39 123.351 404.47 124.231C406.71 124.351 409.07 124.431 410.43 124.271C411.83 124.151 412.75 123.791 413.63 122.631C415.23 120.671 415.79 114.471 416.43 96.1108C416.43 95.6708 416.43 94.5508 416.43 94.5508H413.63ZM403.23 88.0708C401.95 93.6308 399.75 99.1508 397.03 102.671C397.75 103.071 398.99 103.911 399.51 104.391C402.27 100.591 404.63 94.7108 406.11 88.7508L403.23 88.0708ZM401.39 104.951C403.59 107.871 406.27 111.831 407.47 114.271L410.03 112.671C408.75 110.311 405.99 106.431 403.71 103.591L401.39 104.951ZM449.51 94.0308C449.11 96.1108 448.19 99.2308 447.47 101.151L449.27 101.751C450.07 99.9508 450.99 97.0708 451.79 94.6708L449.51 94.0308ZM441.35 94.5908C442.27 96.3908 443.15 98.7908 443.43 100.391L445.39 99.6708C445.07 98.1108 444.19 95.7108 443.23 93.9508L441.35 94.5908ZM436.23 90.1508V125.111H438.95V92.8308H454.99V90.1508H436.23ZM454.03 90.1508V121.671C454.03 122.231 453.87 122.391 453.35 122.431C452.83 122.431 451.19 122.471 449.47 122.391C449.87 123.111 450.23 124.351 450.31 125.031C452.79 125.071 454.43 124.991 455.43 124.551C456.43 124.071 456.75 123.311 456.75 121.671V90.1508H454.03ZM439.95 100.711V103.071H453.15V100.711H439.95ZM440.39 107.311V109.711H452.63V107.311H440.39ZM444.23 103.791C444.91 104.951 445.63 106.591 445.95 107.631L448.15 106.711C447.83 105.711 447.03 104.151 446.35 102.991L444.23 103.791ZM430.83 104.271C431.87 106.791 433.03 110.111 433.43 112.111L435.71 111.191C435.19 109.311 434.07 106.031 432.95 103.551L430.83 104.271ZM426.87 114.271C427.35 116.991 427.79 120.551 427.83 122.871L430.11 122.351C429.99 119.991 429.51 116.511 428.99 113.831L426.87 114.271ZM422.67 113.991C422.31 117.231 421.71 120.831 420.79 123.271C421.39 123.431 422.51 123.831 423.03 124.111C423.83 121.631 424.59 117.871 424.99 114.391L422.67 113.991ZM421.75 103.231C421.75 102.631 423.47 101.751 423.47 101.751V101.711C426.07 98.5108 428.71 93.8308 430.71 89.3908L428.19 88.2708C426.59 92.6308 423.87 97.2308 423.03 98.4308C422.23 99.6308 421.51 100.471 420.87 100.631C421.19 101.351 421.63 102.671 421.75 103.231ZM421.75 103.231C422.35 102.911 423.39 102.711 429.63 101.991C429.67 101.431 429.75 100.431 429.87 99.7108L423.03 100.311L421.71 101.151L421.75 103.231ZM421.99 112.231C421.99 111.671 423.75 110.831 423.75 110.831V110.751C427.43 106.751 431.23 101.111 434.19 95.5908L431.83 94.1908C429.31 99.6708 425.27 105.431 424.03 106.911C422.83 108.431 421.95 109.471 421.15 109.631C421.47 110.351 421.91 111.671 421.99 112.231ZM421.99 112.231C422.75 111.831 424.03 111.511 433.87 109.991C433.83 109.431 433.83 108.431 433.91 107.751L423.27 109.231L421.91 110.151L421.99 112.231ZM431.23 113.471C432.07 115.911 433.07 119.151 433.47 121.311L435.59 120.551C435.15 118.471 434.15 115.271 433.23 112.791L431.23 113.471ZM441.87 108.471V113.631C441.87 116.271 442.47 117.231 445.11 117.231C445.71 117.231 449.47 117.231 450.31 117.231C451.27 117.231 452.35 117.231 452.87 117.071C452.79 116.471 452.71 115.511 452.67 114.831C452.03 114.991 450.91 114.991 450.23 114.991C449.51 114.991 446.03 114.991 445.31 114.991C444.51 114.991 444.35 114.671 444.35 113.671V108.471H441.87ZM469.47 105.071H489.67V108.751H469.47V105.071ZM469.47 111.071H489.67V114.751H469.47V111.071ZM469.47 99.1508H489.67V102.751H469.47V99.1508ZM466.35 96.7508V117.151H492.87V96.7508H466.35ZM482.27 119.791C486.95 121.391 491.71 123.511 494.55 125.071L497.35 123.031C494.23 121.471 489.11 119.391 484.39 117.831L482.27 119.791ZM462.55 90.3108V93.0708H495.95V90.3108H462.55ZM477.79 91.4708C477.55 93.3108 476.95 95.9908 476.39 97.7508L479.23 98.2708C479.87 96.6308 480.63 94.1908 481.31 91.9108L477.79 91.4708ZM473.67 117.631C470.91 119.471 465.43 121.551 461.11 122.711C461.79 123.351 462.71 124.391 463.19 125.031C467.47 123.831 472.91 121.711 476.39 119.591L473.67 117.631ZM502.07 114.391V116.671H520.31V114.391H502.07ZM500.99 95.1108V97.4308H520.95V95.1108H500.99ZM509.67 91.4708V120.911H512.43V91.4708H509.67ZM500.95 120.991L501.39 123.591C506.47 123.071 513.71 122.231 520.51 121.431L520.47 119.071C513.31 119.831 505.83 120.551 500.95 120.991ZM504.67 106.911H517.63V109.871H504.67V106.911ZM504.67 102.031H517.63V104.911H504.67V102.031ZM502.15 99.9508V111.951H520.19V99.9508H502.15ZM518.75 88.6308C514.63 89.5908 507.35 90.3108 501.39 90.6308C501.71 91.2308 501.99 92.2308 502.11 92.8708C508.11 92.6708 515.55 91.9908 520.27 90.9508L518.75 88.6308ZM520.67 97.5908V100.391H535.11V97.5908H520.67ZM533.95 97.5908V98.3108C533.51 114.511 533.07 120.271 532.07 121.511C531.71 122.031 531.31 122.151 530.67 122.151C529.87 122.151 528.11 122.111 526.15 121.951C526.63 122.751 526.95 123.991 527.03 124.831C528.87 124.951 530.79 124.951 531.91 124.831C533.11 124.711 533.91 124.351 534.63 123.311C535.95 121.591 536.35 115.991 536.79 99.1108C536.79 98.7108 536.83 97.5908 536.83 97.5908H533.95ZM525.51 88.7508C525.47 103.871 525.67 116.551 516.51 123.111C517.23 123.591 518.27 124.551 518.75 125.271C528.31 118.111 528.35 104.671 528.39 88.7508H525.51ZM557.75 111.071V119.111H560.55V111.071H557.75ZM541.35 121.751V123.911H577.31V121.751H541.35ZM541.43 94.6308V96.5108H577.19V94.6308H541.43ZM541.35 106.631V108.751H577.31V106.631H541.35ZM544.43 102.671V104.551H574.43V102.671H544.43ZM545.67 90.7108V92.5908H569.83V98.7108H545.43V100.591H572.83V90.7108H545.67ZM557.63 88.2308V107.471H560.67V88.2308H557.63ZM548.87 115.991H569.87V118.111H548.87V115.991ZM548.87 112.271H569.87V114.311H548.87V112.271ZM545.91 110.471V119.871H572.91V110.471H545.91ZM586.43 112.991H589.67C588.91 106.711 596.15 104.391 596.15 98.5108C596.15 94.1108 593.19 91.3508 588.63 91.3508C585.39 91.3508 582.87 92.9508 580.99 95.0308L583.07 96.9508C584.47 95.3508 586.27 94.3908 588.27 94.3908C591.11 94.3908 592.59 96.3508 592.59 98.7508C592.59 103.471 585.47 106.031 586.43 112.991ZM588.15 122.391C589.59 122.391 590.79 121.231 590.79 119.591C590.79 117.911 589.59 116.791 588.15 116.791C586.67 116.791 585.51 117.911 585.51 119.591C585.51 121.231 586.67 122.391 588.15 122.391Z" fill="#F0F0F0"/>
</svg>
