<svg width="687" height="685" viewBox="0 0 687 685" fill="none" xmlns="http://www.w3.org/2000/svg">
<path d="M576.143 577.447L509.883 569.529L504.834 635.395L444.713 604.326L424.406 668.334L373.438 626.41L339.17 684.083L291.744 627.939L250.853 669.258L225.408 613.51L169.072 632.789L159.985 575.864L100.018 578.624L112.999 499.648L55.4972 494.16L77.3342 441.117L12.7912 421.639L40.9538 367.474L0.976074 339.672L45.4972 302.037L11.8781 251.545L70.0295 225.843L44.5951 169.841L106.377 156.072L98.2031 97.3098L161.305 106.537L168.17 45.9054L226.772 70.5188L248.675 11.5698L297.652 49.4358L335.352 0L364.428 34.8855L425.242 13.4065L442.568 69.771L520.081 34.7425L508.904 108.33L575.23 100.07L562.512 165.244L627.022 168.917L602.49 227.68L659.739 251.545L610.675 302.037L678.815 339.672L611.577 382.828L687 402.36L619.553 426.709L657.924 481.314L604.844 478.752L614.239 545.806L551.61 514.11L576.143 577.447Z" fill="#0000C5"/>
</svg>
