<svg width="193" height="50" viewBox="0 0 193 50" fill="none" xmlns="http://www.w3.org/2000/svg">
<path d="M5.4531 10.6532C8.46476 10.6532 10.9062 8.67557 10.9062 6.23603C10.9062 3.79649 8.46476 1.81885 5.4531 1.81885C2.44144 1.81885 0 3.79649 0 6.23603C0 8.67557 2.44144 10.6532 5.4531 10.6532Z" fill="#B99BF1"/>
<path d="M7.05708 9.35402C5.91512 9.35402 4.79879 9.07972 3.84928 8.56581C2.89978 8.05189 2.15973 7.32144 1.72272 6.46683C1.28571 5.61222 1.17136 4.67182 1.39415 3.76457C1.61693 2.85732 2.16684 2.02396 2.97433 1.36987C3.78182 0.715774 4.81063 0.270333 5.93065 0.0898693C7.05067 -0.0905942 8.2116 0.0020272 9.26664 0.356019C10.3217 0.710011 11.2234 1.30947 11.8579 2.0786C12.4923 2.84774 12.8309 3.75199 12.8309 4.67701C12.8292 5.917 12.2203 7.10581 11.1379 7.98261C10.0555 8.85942 8.58787 9.35262 7.05708 9.35402ZM7.05708 0.519668C6.042 0.519668 5.04971 0.763492 4.20571 1.22031C3.3617 1.67712 2.70388 2.32641 2.31542 3.08607C1.92697 3.84572 1.82533 4.68162 2.02337 5.48807C2.2214 6.29451 2.7102 7.03528 3.42797 7.6167C4.14574 8.19811 5.06023 8.59406 6.05581 8.75447C7.05138 8.91488 8.08332 8.83256 9.02113 8.5179C9.95894 8.20324 10.7605 7.67038 11.3245 6.98671C11.8884 6.30304 12.1894 5.49926 12.1894 4.67701C12.1879 3.5748 11.6466 2.5181 10.6845 1.73871C9.72231 0.959333 8.41778 0.520923 7.05708 0.519668Z" fill="white"/>
<path d="M179.255 50H21.3522C18.8324 49.9989 16.4165 49.6144 14.6347 48.9308C12.8528 48.2472 11.8505 47.3204 11.8477 46.3537V19.8002C11.8505 18.8335 12.8527 17.9066 14.6346 17.223C16.4164 16.5394 18.8323 16.1549 21.3522 16.1538H179.255C181.775 16.1549 184.191 16.5394 185.973 17.223C187.755 17.9066 188.757 18.8335 188.76 19.8002V46.3537C188.757 47.3204 187.755 48.2472 185.973 48.9308C184.191 49.6144 181.775 49.9989 179.255 50Z" fill="#9C71EC"/>
<path d="M182.547 46.9231H26.1535C23.5688 46.9219 21.0907 46.5267 19.263 45.8242C17.4353 45.1216 16.4072 44.1691 16.4043 43.1755V16.8244C16.4072 15.8309 17.4353 14.8783 19.263 14.1758C21.0907 13.4732 23.5688 13.078 26.1535 13.0769H182.547C185.131 13.078 187.61 13.4732 189.437 14.1758C191.265 14.8783 192.293 15.8309 192.296 16.8244V43.1755C192.293 44.1691 191.265 45.1216 189.437 45.8242C187.61 46.5268 185.131 46.9219 182.547 46.9231ZM26.1535 13.593C23.9247 13.5939 21.7879 13.9347 20.2119 14.5405C18.6359 15.1463 17.7494 15.9677 17.7468 16.8244V43.1755C17.7494 44.0323 18.6359 44.8536 20.2119 45.4594C21.7879 46.0653 23.9247 46.406 26.1535 46.407H182.547C184.775 46.406 186.912 46.0653 188.488 45.4594C190.064 44.8536 190.951 44.0323 190.953 43.1755V16.8244C190.951 15.9677 190.064 15.1463 188.488 14.5405C186.912 13.9347 184.775 13.5939 182.547 13.593H26.1535Z" fill="white"/>
<path d="M32.3256 38.8214L33.1656 39.5054C33.7896 38.7374 34.4976 37.7894 35.0856 36.9254L34.3776 36.2654C33.7056 37.2014 32.8896 38.2094 32.3256 38.8214ZM31.8336 35.5574C32.5416 35.7374 33.3936 36.0854 33.8256 36.4094L34.3656 35.6174C33.9096 35.2934 33.0336 34.9694 32.3376 34.8374L31.8336 35.5574ZM32.8296 34.0694C33.5136 34.2854 34.3656 34.6814 34.7736 35.0174L35.3496 34.2374C34.9056 33.9134 34.0416 33.5534 33.3696 33.3734L32.8296 34.0694ZM32.6616 29.4494V30.3134H42.2016V29.4494H32.6616ZM33.2376 30.9494V31.7654H41.6496V30.9494H33.2376ZM32.1936 32.4374V33.3014H42.6696V32.4374H32.1936ZM36.8016 34.3454V35.2574H41.6736V34.3454H36.8016ZM36.8136 29.9534V32.8694H37.9896V29.9534H36.8136ZM34.3416 28.6814C34.6536 29.0414 34.9896 29.5694 35.1096 29.9054L36.1536 29.5094C36.0096 29.1614 35.6736 28.6814 35.3376 28.3334L34.3416 28.6814ZM39.4176 28.3214C39.2616 28.6814 38.9496 29.2094 38.7096 29.5574L39.6696 29.8334C39.9576 29.5214 40.3176 29.0654 40.6416 28.5854L39.4176 28.3214ZM38.8776 34.6814H38.2776V35.7134C38.2776 36.2894 37.7256 37.9214 34.8096 38.6054C35.0136 38.8214 35.3016 39.2294 35.4216 39.4694C37.6416 38.9174 38.6376 37.5974 38.8656 36.8774C39.1176 37.6214 40.0776 38.9294 42.3456 39.4814C42.4896 39.2414 42.7776 38.7974 42.9696 38.5454C39.9456 37.8734 39.4416 36.2774 39.4416 35.7134V34.6814H38.8776ZM36.8376 33.2294C36.4776 34.3214 35.8176 35.3654 35.0376 36.0494C35.2896 36.1934 35.7576 36.5054 35.9496 36.6734C36.7416 35.9174 37.4856 34.7414 37.9056 33.4814L36.8376 33.2294ZM41.3976 34.3454V34.4894C41.1936 35.1854 40.8456 36.0254 40.5696 36.5414L41.5296 36.7334C41.8416 36.1694 42.2256 35.2694 42.5256 34.4654L41.7336 34.3094L41.5656 34.3454H41.3976ZM46.5576 32.6414H52.2696V33.2894H46.5576V32.6414ZM46.5576 31.3214H52.2696V31.9574H46.5576V31.3214ZM45.5136 30.6014V34.0094H53.3616V30.6014H45.5136ZM44.0376 34.5614V35.4614H54.8136V34.5614H44.0376ZM46.8336 28.3334V30.3974H47.9376V28.3334H46.8336ZM50.8896 28.3334V30.3974H52.0056V28.3334H50.8896ZM47.6736 33.7454C47.1696 34.9454 45.9456 36.1334 43.8216 36.8654C44.0616 37.0334 44.3856 37.4054 44.5296 37.6694C46.7736 36.7694 48.0936 35.4494 48.8256 33.9254L47.6736 33.7454ZM51.5136 34.8374L50.6496 35.1734C51.4776 36.2654 52.9176 37.2374 54.3096 37.7054C54.4536 37.4534 54.7656 37.0694 54.9816 36.8774C53.6496 36.5054 52.2336 35.7014 51.5136 34.8374ZM48.2256 35.7254V38.4134C48.2256 38.5334 48.1776 38.5694 48.0456 38.5694C47.9136 38.5814 47.4576 38.5814 46.9896 38.5694C47.1336 38.8214 47.2656 39.1934 47.3136 39.4574C47.9976 39.4694 48.4776 39.4574 48.8136 39.3254C49.1616 39.1694 49.2456 38.9174 49.2456 38.4374V35.7254H48.2256ZM46.7616 36.4814C46.4616 37.2494 45.9216 38.0294 45.1296 38.4734L45.9216 39.1094C46.7976 38.5694 47.3016 37.6934 47.6376 36.8294L46.7616 36.4814ZM49.3416 36.9614C49.7016 37.5974 50.0616 38.4254 50.1696 38.9534L51.0336 38.6414C50.9136 38.1134 50.5296 37.2974 50.1576 36.6854L49.3416 36.9614ZM50.8296 36.6614C51.5376 37.3814 52.3296 38.3774 52.6536 39.0254L53.6016 38.5454C53.2296 37.8854 52.4136 36.9134 51.7056 36.2414L50.8296 36.6614ZM44.1336 29.0054V29.9054H49.2576V29.0054H44.1336ZM49.6416 29.0054V29.9054H54.7416V29.0054H49.6416ZM62.4336 29.7854V36.5054H63.5376V29.7854H62.4336ZM65.3256 28.5734V38.0414C65.3256 38.2694 65.2296 38.3414 65.0016 38.3414C64.7616 38.3534 64.0056 38.3534 63.1776 38.3294C63.3456 38.6534 63.5256 39.1694 63.5856 39.4814C64.6896 39.4934 65.4096 39.4574 65.8536 39.2774C66.2856 39.0854 66.4536 38.7614 66.4536 38.0414V28.5734H65.3256ZM58.0656 34.0934V35.1014H60.8736V34.0934H58.0656ZM60.3816 34.0934V34.2734C60.2736 37.0694 60.1536 38.1134 59.9376 38.3534C59.8296 38.4734 59.7216 38.4974 59.5296 38.4974C59.3136 38.4974 58.7856 38.4974 58.2336 38.4374C58.4016 38.7134 58.5216 39.1334 58.5456 39.4334C59.1216 39.4574 59.6976 39.4574 60.0096 39.4214C60.3816 39.3734 60.6216 39.2894 60.8376 39.0254C61.1736 38.6294 61.2936 37.5014 61.4256 34.5374C61.4256 34.4054 61.4376 34.0934 61.4376 34.0934H60.3816ZM57.5376 29.8934H60.2496V31.9214H57.5376V29.8934ZM56.5056 28.8974V32.9414H61.3416V28.8974H56.5056ZM57.7896 32.5934C57.6816 34.7894 57.4656 37.3094 55.7736 38.6894C56.0376 38.8694 56.3736 39.2174 56.5416 39.4934C58.4376 37.9094 58.7616 35.1374 58.8936 32.5934H57.7896ZM72.7176 28.3694C72.6696 30.3014 72.8136 35.9654 67.8576 38.5334C68.2176 38.7854 68.5896 39.1454 68.7936 39.4454C73.8576 36.6134 73.9416 30.6494 74.0016 28.3694H72.7176ZM73.8816 29.8334L72.7896 29.9534C72.9576 31.0694 73.4136 37.1054 78.2376 39.3854C78.4056 39.0614 78.7296 38.6774 79.0656 38.4134C74.4216 36.3374 73.9776 30.7454 73.8816 29.8334ZM80.1456 31.1774V39.4454H80.9976V32.1254H83.9736V39.2774H84.8616V31.1774H80.1456ZM81.4416 35.8214V36.6974H83.5416V35.8214H81.4416ZM80.5296 37.7294V38.6174H84.5256V37.7294H80.5296ZM79.9536 28.8254V29.7854H84.9576V28.8254H79.9536ZM81.4056 29.1494V31.8974H82.1856V29.1494H81.4056ZM82.7856 29.1494V31.8974H83.5776V29.1494H82.7856ZM81.6216 31.8854V33.0254C81.6216 33.6014 81.5376 34.2974 80.9256 34.8494C81.0576 34.9214 81.2976 35.1134 81.3816 35.2334C82.0536 34.6094 82.2096 33.7094 82.2096 33.0254V31.8854H81.6216ZM82.7496 31.8854V33.9014C82.7496 34.5254 82.9056 34.6574 83.3976 34.6574C83.4936 34.6574 83.8176 34.6574 83.9136 34.6574C84.2616 34.6574 84.4416 34.5374 84.5136 34.2494C84.3336 34.2014 84.1056 34.1294 83.9856 34.0214C83.9616 34.0454 83.9256 34.0574 83.8056 34.0574C83.7336 34.0574 83.5176 34.0574 83.4696 34.0574C83.3496 34.0574 83.3376 34.0334 83.3376 33.8894V31.8854H82.7496ZM86.0616 30.1934V31.2014H90.7776V30.1934H86.0616ZM85.2696 32.9174V33.9254H91.0416V32.9174H85.2696ZM86.1696 37.8374V38.8574H90.3936V37.8374H86.1696ZM85.6776 34.8254V39.4214H86.7096V35.8454H89.5776V39.4094H90.6696V34.8254H85.6776ZM87.7776 28.3334V33.5774H88.8336V28.3334H87.7776ZM86.0976 28.7174C85.9296 29.9654 85.5936 31.2614 85.1016 32.1014C85.3656 32.2094 85.8336 32.4494 86.0496 32.6054C86.5296 31.6934 86.9256 30.2894 87.1416 28.9094L86.0976 28.7174ZM92.1456 31.1774V39.4454H92.9976V32.1254H95.9736V39.2774H96.8616V31.1774H92.1456ZM93.4416 35.8214V36.6974H95.5416V35.8214H93.4416ZM92.5296 37.7294V38.6174H96.5256V37.7294H92.5296ZM91.9536 28.8254V29.7854H96.9576V28.8254H91.9536ZM93.4056 29.1494V31.8974H94.1856V29.1494H93.4056ZM94.7856 29.1494V31.8974H95.5776V29.1494H94.7856ZM93.6216 31.8854V33.0254C93.6216 33.6014 93.5376 34.2974 92.9256 34.8494C93.0576 34.9214 93.2976 35.1134 93.3816 35.2334C94.0536 34.6094 94.2096 33.7094 94.2096 33.0254V31.8854H93.6216ZM94.7496 31.8854V33.9014C94.7496 34.5254 94.9056 34.6574 95.3976 34.6574C95.4936 34.6574 95.8176 34.6574 95.9136 34.6574C96.2616 34.6574 96.4416 34.5374 96.5136 34.2494C96.3336 34.2014 96.1056 34.1294 95.9856 34.0214C95.9616 34.0454 95.9256 34.0574 95.8056 34.0574C95.7336 34.0574 95.5176 34.0574 95.4696 34.0574C95.3496 34.0574 95.3376 34.0334 95.3376 33.8894V31.8854H94.7496ZM98.0616 30.1934V31.2014H102.778V30.1934H98.0616ZM97.2696 32.9174V33.9254H103.042V32.9174H97.2696ZM98.1696 37.8374V38.8574H102.394V37.8374H98.1696ZM97.6776 34.8254V39.4214H98.7096V35.8454H101.578V39.4094H102.67V34.8254H97.6776ZM99.7776 28.3334V33.5774H100.834V28.3334H99.7776ZM98.0976 28.7174C97.9296 29.9654 97.5936 31.2614 97.1016 32.1014C97.3656 32.2094 97.8336 32.4494 98.0496 32.6054C98.5296 31.6934 98.9256 30.2894 99.1416 28.9094L98.0976 28.7174ZM105.058 30.2774V31.2734H107.686V37.2134H105.058V38.2214H108.718V30.2774H105.058ZM104.386 30.2774V39.1454H105.43V30.2774H104.386ZM104.998 33.5534V34.5494H108.202V33.5534H104.998ZM106.174 28.3214C106.09 28.9574 105.886 29.8694 105.694 30.4694L106.606 30.6854C106.846 30.1334 107.146 29.2934 107.398 28.5134L106.174 28.3214ZM110.374 30.2174V31.2614H113.986V30.2174H110.374ZM113.59 30.2174V30.4454C113.446 35.6054 113.266 37.6334 112.87 38.0534C112.738 38.2214 112.594 38.2574 112.354 38.2574C112.066 38.2574 111.346 38.2454 110.566 38.1854C110.77 38.4854 110.914 38.9654 110.938 39.2894C111.622 39.3134 112.342 39.3374 112.774 39.2894C113.23 39.2294 113.53 39.1094 113.818 38.7134C114.31 38.1014 114.466 36.2174 114.634 30.7574C114.646 30.6134 114.646 30.2174 114.646 30.2174H113.59ZM110.53 28.3094C110.146 29.9414 109.486 31.5854 108.67 32.6294C108.934 32.7734 109.402 33.0974 109.606 33.2774C110.422 32.1374 111.166 30.3494 111.622 28.5614L110.53 28.3094ZM109.966 33.4814C110.59 34.3574 111.37 35.5454 111.718 36.2774L112.69 35.6894C112.306 34.9814 111.49 33.8174 110.854 32.9774L109.966 33.4814ZM124.342 30.1934C124.246 30.7934 123.994 31.6934 123.802 32.2454L124.462 32.4494C124.678 31.9214 124.918 31.1174 125.158 30.4094L124.342 30.1934ZM122.05 30.3974C122.302 30.9134 122.53 31.6214 122.602 32.0774L123.31 31.8254C123.226 31.3814 122.986 30.6854 122.722 30.1694L122.05 30.3974ZM120.442 28.8854V39.4934H121.462V29.8814H126.022V28.8854H120.442ZM125.698 28.8854V38.2934C125.698 38.4494 125.65 38.4974 125.494 38.5094C125.338 38.5094 124.858 38.5214 124.39 38.4974C124.522 38.7614 124.654 39.2054 124.69 39.4694C125.434 39.4814 125.95 39.4574 126.286 39.2894C126.622 39.1214 126.718 38.8454 126.718 38.2934V28.8854H125.698ZM121.726 32.1134V32.9774H125.446V32.1134H121.726ZM121.822 34.1294V35.0174H125.338V34.1294H121.822ZM122.878 33.1934C123.046 33.5294 123.238 33.9854 123.322 34.2734L124.138 33.9614C124.054 33.6854 123.838 33.2534 123.658 32.9294L122.878 33.1934ZM118.798 33.2774C119.086 34.0214 119.422 35.0174 119.542 35.6054L120.37 35.2694C120.214 34.7054 119.878 33.7334 119.554 33.0014L118.798 33.2774ZM117.61 36.2654C117.742 37.0694 117.874 38.1254 117.886 38.8214L118.714 38.6174C118.666 37.9214 118.534 36.8894 118.378 36.0854L117.61 36.2654ZM116.338 36.1454C116.242 37.1174 116.086 38.1974 115.81 38.9174C116.026 38.9774 116.434 39.1094 116.626 39.2174C116.866 38.4734 117.07 37.3454 117.178 36.2894L116.338 36.1454ZM116.17 32.9534C116.17 32.7494 116.77 32.4254 116.77 32.4254V32.4134C117.526 31.4534 118.318 30.0734 118.894 28.7534L117.958 28.3574C117.514 29.6414 116.734 31.0094 116.494 31.3574C116.254 31.7174 116.05 31.9574 115.846 32.0054C115.966 32.2694 116.11 32.7494 116.17 32.9534ZM116.17 32.9534C116.362 32.8454 116.698 32.7734 118.534 32.5814C118.546 32.3654 118.582 31.9934 118.642 31.7294L116.602 31.8974L116.146 32.1974L116.17 32.9534ZM116.242 35.6894C116.242 35.4854 116.854 35.1854 116.854 35.1854V35.1614C117.97 33.9494 119.122 32.2574 119.986 30.6134L119.134 30.0734C118.39 31.7414 117.19 33.4814 116.806 33.9254C116.446 34.3814 116.194 34.6814 115.93 34.7414C116.038 35.0054 116.206 35.4854 116.242 35.6894ZM116.242 35.6894C116.482 35.5574 116.902 35.4494 119.758 35.0054C119.746 34.8014 119.758 34.4294 119.794 34.1774L116.662 34.6094L116.206 34.9214L116.242 35.6894ZM118.906 36.0014C119.146 36.7334 119.446 37.7054 119.554 38.3414L120.322 38.0534C120.19 37.4414 119.902 36.4934 119.626 35.7614L118.906 36.0014ZM122.218 34.5854V35.9894C122.218 36.8534 122.422 37.1894 123.31 37.1894C123.49 37.1894 124.402 37.1894 124.63 37.1894C124.906 37.1894 125.23 37.1894 125.386 37.1294C125.362 36.9134 125.338 36.5654 125.314 36.3254C125.134 36.3734 124.798 36.3854 124.606 36.3854C124.414 36.3854 123.586 36.3854 123.406 36.3854C123.178 36.3854 123.142 36.2894 123.142 36.0014V34.5854H122.218ZM130.654 33.5294H136.306V34.4414H130.654V33.5294ZM130.654 35.2814H136.306V36.1934H130.654V35.2814ZM130.654 31.7894H136.306V32.6894H130.654V31.7894ZM129.466 30.9014V37.0814H137.53V30.9014H129.466ZM134.182 37.9094C135.55 38.3774 136.954 39.0254 137.782 39.4814L138.886 38.7134C137.962 38.2574 136.402 37.6334 135.01 37.1654L134.182 37.9094ZM128.374 28.9334V29.9654H138.418V28.9334H128.374ZM132.826 29.4014C132.766 29.9534 132.61 30.7574 132.454 31.2854L133.546 31.4774C133.738 30.9854 133.978 30.2654 134.194 29.5574L132.826 29.4014ZM131.674 37.0934C130.846 37.6334 129.214 38.2574 127.93 38.5934C128.194 38.8334 128.53 39.2294 128.722 39.4694C129.994 39.1094 131.626 38.4734 132.682 37.8614L131.674 37.0934ZM140.194 36.1454V36.9734H145.726V36.1454H140.194ZM139.894 30.3854V31.2374H145.894V30.3854H139.894ZM142.402 29.4014V38.1374H143.434V29.4014H142.402ZM139.858 38.0894L140.002 39.0614C141.55 38.9054 143.722 38.6774 145.762 38.4374L145.75 37.5614C143.602 37.7774 141.334 37.9694 139.858 38.0894ZM141.154 34.0454H144.73V34.7774H141.154V34.0454ZM141.154 32.6174H144.73V33.3374H141.154V32.6174ZM140.23 31.8734V35.5214H145.678V31.8734H140.23ZM145.186 28.4294C143.902 28.7174 141.766 28.9334 139.978 29.0174C140.086 29.2454 140.194 29.6054 140.242 29.8454C142.042 29.7974 144.25 29.6054 145.714 29.2934L145.186 28.4294ZM145.834 31.1054V32.1494H150.094V31.1054H145.834ZM149.638 31.1054V31.3574C149.53 36.1214 149.41 37.8374 149.122 38.2094C149.014 38.3654 148.894 38.4014 148.702 38.4014C148.474 38.4014 147.97 38.3894 147.418 38.3414C147.598 38.6534 147.718 39.1214 147.742 39.4334C148.306 39.4574 148.87 39.4574 149.23 39.4094C149.602 39.3494 149.866 39.2414 150.094 38.8814C150.49 38.3654 150.598 36.6494 150.73 31.6334C150.73 31.5014 150.73 31.1054 150.73 31.1054H149.638ZM147.154 28.5134C147.142 33.1574 147.238 36.7694 144.586 38.7134C144.85 38.9054 145.234 39.2894 145.402 39.5534C148.222 37.3934 148.234 33.4334 148.246 28.5134H147.154ZM156.85 35.2094V37.6214H157.906V35.2094H156.85ZM152.002 38.3654V39.1454H162.862V38.3654H152.002ZM152.038 30.2294V30.8894H162.814V30.2294H152.038ZM152.002 33.8174V34.5614H162.874V33.8174H152.002ZM152.902 32.6294V33.2774H162.022V32.6294H152.902ZM153.31 29.0654V29.7134H160.402V31.4534H153.238V32.1014H161.554V29.0654H153.31ZM156.79 28.3214V34.1414H157.942V28.3214H156.79ZM154.486 36.7334H160.414V37.2854H154.486V36.7334ZM154.486 35.6294H160.414V36.1574H154.486V35.6294ZM153.37 35.0174V37.8854H161.566V35.0174H153.37ZM165.55 35.6534H166.774C166.57 33.8534 168.706 33.2054 168.706 31.4654C168.706 30.0494 167.746 29.2574 166.342 29.2574C165.334 29.2574 164.53 29.7374 163.942 30.4094L164.722 31.1294C165.13 30.6734 165.622 30.3974 166.186 30.3974C166.942 30.3974 167.362 30.8894 167.362 31.5614C167.362 32.8574 165.262 33.6254 165.55 35.6534ZM166.186 38.6294C166.702 38.6294 167.11 38.2214 167.11 37.6574C167.11 37.0814 166.702 36.6854 166.186 36.6854C165.658 36.6854 165.262 37.0814 165.262 37.6574C165.262 38.2214 165.658 38.6294 166.186 38.6294Z" fill="white"/>
</svg>
