<svg width="214" height="51" viewBox="0 0 214 51" fill="none" xmlns="http://www.w3.org/2000/svg">
<path d="M206.057 48.2004C208.926 48.2004 211.253 46.0738 211.253 43.4506C211.253 40.8275 208.926 38.7009 206.057 38.7009C203.187 38.7009 200.861 40.8275 200.861 43.4506C200.861 46.0738 203.187 48.2004 206.057 48.2004Z" fill="#00B9AE"/>
<path d="M207.585 46.8033C206.497 46.8033 205.433 46.5084 204.529 45.9558C203.624 45.4032 202.919 44.6177 202.502 43.6988C202.086 42.7798 201.977 41.7687 202.189 40.7931C202.401 39.8175 202.925 38.9214 203.695 38.2181C204.464 37.5148 205.445 37.0358 206.512 36.8418C207.579 36.6477 208.685 36.7473 209.69 37.1279C210.696 37.5086 211.555 38.1532 212.159 38.9802C212.764 39.8072 213.087 40.7796 213.087 41.7742C213.085 43.1076 212.505 44.3859 211.473 45.3287C210.442 46.2715 209.044 46.8018 207.585 46.8033ZM207.585 37.3039C206.618 37.3039 205.672 37.5661 204.868 38.0573C204.064 38.5485 203.437 39.2467 203.067 40.0635C202.697 40.8804 202.6 41.7792 202.789 42.6463C202.977 43.5135 203.443 44.31 204.127 44.9352C204.811 45.5604 205.682 45.9862 206.631 46.1587C207.58 46.3311 208.563 46.2426 209.457 45.9043C210.35 45.5659 211.114 44.993 211.651 44.2578C212.189 43.5227 212.475 42.6584 212.475 41.7742C212.474 40.589 211.958 39.4528 211.041 38.6147C210.125 37.7767 208.882 37.3053 207.585 37.3039Z" fill="white"/>
<path d="M184.456 40.7028H10.4725C7.696 40.7016 5.03412 40.2882 3.07084 39.5531C1.10755 38.8181 0.00318219 37.8215 0 36.782V8.22954C0.00310706 7.19001 1.10744 6.19339 3.07073 5.45832C5.03403 4.72326 7.69594 4.30978 10.4725 4.30859H184.456C187.232 4.30977 189.894 4.72326 191.858 5.45832C193.821 6.19339 194.925 7.19001 194.928 8.22954V36.782C194.925 37.8215 193.821 38.8181 191.858 39.5532C189.894 40.2882 187.232 40.7016 184.456 40.7028Z" fill="#00B9AE"/>
<path d="M32.1987 24.8239V25.6519H37.7307V24.8239H32.1987ZM31.8987 19.0639V19.9159H37.8987V19.0639H31.8987ZM34.4067 18.0799V26.8159H35.4387V18.0799H34.4067ZM31.8627 26.7679L32.0067 27.7399C33.5547 27.5839 35.7267 27.3559 37.7667 27.1159L37.7547 26.2399C35.6067 26.4559 33.3387 26.6479 31.8627 26.7679ZM33.1587 22.7239H36.7347V23.4559H33.1587V22.7239ZM33.1587 21.2959H36.7347V22.0159H33.1587V21.2959ZM32.2347 20.5519V24.1999H37.6827V20.5519H32.2347ZM37.1907 17.1079C35.9067 17.3959 33.7707 17.6119 31.9827 17.6959C32.0907 17.9239 32.1987 18.2839 32.2467 18.5239C34.0467 18.4759 36.2547 18.2839 37.7187 17.9719L37.1907 17.1079ZM37.8387 19.7839V20.8279H42.0987V19.7839H37.8387ZM41.6427 19.7839V20.0359C41.5347 24.7999 41.4147 26.5159 41.1267 26.8879C41.0187 27.0439 40.8987 27.0799 40.7067 27.0799C40.4787 27.0799 39.9747 27.0679 39.4227 27.0199C39.6027 27.3319 39.7227 27.7999 39.7467 28.1119C40.3107 28.1359 40.8747 28.1359 41.2347 28.0879C41.6067 28.0279 41.8707 27.9199 42.0987 27.5599C42.4947 27.0439 42.6027 25.3279 42.7347 20.3119C42.7347 20.1799 42.7347 19.7839 42.7347 19.7839H41.6427ZM39.1587 17.1919C39.1467 21.8359 39.2427 25.4479 36.5907 27.3919C36.8547 27.5839 37.2387 27.9679 37.4067 28.2319C40.2267 26.0719 40.2387 22.1119 40.2507 17.1919H39.1587ZM48.8547 23.8879V26.2999H49.9107V23.8879H48.8547ZM44.0067 27.0439V27.8239H54.8667V27.0439H44.0067ZM44.0427 18.9079V19.5679H54.8187V18.9079H44.0427ZM44.0067 22.4959V23.2399H54.8787V22.4959H44.0067ZM44.9067 21.3079V21.9559H54.0267V21.3079H44.9067ZM45.3147 17.7439V18.3919H52.4067V20.1319H45.2427V20.7799H53.5587V17.7439H45.3147ZM48.7947 16.9999V22.8199H49.9467V16.9999H48.7947ZM46.4907 25.4119H52.4187V25.9639H46.4907V25.4119ZM46.4907 24.3079H52.4187V24.8359H46.4907V24.3079ZM45.3747 23.6959V26.5639H53.5707V23.6959H45.3747ZM60.0027 18.8239V19.8799H66.6507V18.8239H60.0027ZM60.2307 21.5239V22.5559H65.4507V21.5239H60.2307ZM62.7267 17.0119V22.0999H63.8427V17.0119H62.7267ZM61.5627 22.3159L60.5427 22.6159C61.6107 25.3879 63.4947 27.3199 66.3747 28.1599C66.5307 27.8719 66.8547 27.4159 67.1067 27.1879C64.3347 26.4799 62.4507 24.7159 61.5627 22.3159ZM65.3427 21.5239V21.7159C64.5387 24.5959 62.1267 26.4199 59.3067 27.1159C59.5227 27.3559 59.7987 27.8359 59.9187 28.1359C62.9667 27.2359 65.4867 25.2799 66.4827 21.7879L65.7627 21.4879L65.5587 21.5239H65.3427ZM55.8147 23.2519L56.1267 24.3439C57.2187 24.0439 58.6227 23.6599 59.9427 23.2639L59.7987 22.2319C58.3587 22.6279 56.8467 23.0239 55.8147 23.2519ZM55.9707 19.3759V20.4319H59.8347V19.3759H55.9707ZM57.4467 17.0119V26.8399C57.4467 27.0199 57.3867 27.0799 57.2187 27.0799C57.0627 27.0799 56.5467 27.0799 56.0187 27.0679C56.1627 27.3679 56.3187 27.8239 56.3547 28.1119C57.1947 28.1119 57.7227 28.0759 58.0827 27.9079C58.4427 27.7279 58.5627 27.4399 58.5627 26.8519V17.0119H57.4467ZM71.9427 21.3079V27.0199C71.9427 27.1759 71.9067 27.2239 71.7387 27.2239C71.5827 27.2239 71.0907 27.2359 70.5867 27.2119C70.7307 27.4639 70.8867 27.8479 70.9347 28.1119C71.6787 28.1119 72.2187 28.0999 72.5667 27.9559C72.9147 27.7999 73.0227 27.5359 73.0227 27.0199V21.3079H71.9427ZM69.1947 21.3079V22.2679H72.5307V21.3079H69.1947ZM74.0187 22.6399V26.5879C74.0187 27.7279 74.3547 28.0639 75.6267 28.0639C75.9027 28.0639 77.2947 28.0639 77.5827 28.0639C78.6387 28.0639 78.9507 27.6199 79.0947 26.0479C78.7827 25.9879 78.3267 25.8079 78.0867 25.6279C78.0267 26.8519 77.9427 27.0559 77.4867 27.0559C77.1627 27.0559 75.9987 27.0559 75.7707 27.0559C75.2427 27.0559 75.1467 26.9959 75.1467 26.5759V22.6399H74.0187ZM71.3667 18.2359C71.9067 19.1119 72.5547 20.2999 72.8187 21.0319L73.8027 20.6119C73.5027 19.8919 72.8427 18.7399 72.2907 17.8879L71.3667 18.2359ZM74.7027 18.5959V19.5799H78.2667V18.5959H74.7027ZM74.7147 23.9719V24.9919H78.3867V23.9719H74.7147ZM68.5227 20.7199C68.5227 20.5039 69.1827 20.1679 69.1827 20.1679V20.1559C69.9387 19.4839 70.8027 18.4159 71.4507 17.3719L70.2987 17.0119C69.8187 17.9719 69.0507 18.9319 68.8107 19.1959C68.5707 19.4599 68.3667 19.6279 68.1627 19.6759C68.2827 19.9639 68.4627 20.4919 68.5227 20.7199ZM68.5227 20.7199C68.8467 20.5879 69.3387 20.5159 73.0107 20.1799C72.9387 19.9519 72.8427 19.5679 72.8067 19.2799L69.0507 19.5559L68.4867 19.8919L68.5227 20.7199ZM68.6547 21.3079V24.1519C68.6547 25.1839 68.5947 26.4799 67.9227 27.4159C68.1387 27.5599 68.5587 27.9679 68.7147 28.1839C69.5547 27.0919 69.6987 25.4119 69.6987 24.1639V21.3079H68.6547ZM69.5187 25.7479L69.8787 26.7079C70.6707 26.2399 71.5827 25.6639 72.4707 25.0879L72.2547 24.3919C71.2347 24.9079 70.2147 25.4359 69.5187 25.7479ZM69.6987 23.3359C70.2747 23.7319 71.0307 24.2839 71.4027 24.6319L72.0147 24.0199C71.6187 23.6959 70.8627 23.1679 70.2867 22.8079L69.6987 23.3359ZM74.0187 17.0359V20.6599C74.0187 21.8359 74.3667 22.2679 75.5907 22.2679C75.8547 22.2679 77.3187 22.2679 77.6667 22.2679C78.1107 22.2679 78.5787 22.2439 78.7947 22.1839C78.7587 21.9199 78.7107 21.4999 78.6987 21.1999C78.4467 21.2599 77.9547 21.2839 77.6427 21.2839C77.2947 21.2839 75.9387 21.2839 75.6147 21.2839C75.2307 21.2839 75.1467 21.1279 75.1467 20.6959V17.0359H74.0187ZM87.1227 19.3279V20.3239H90.9987V19.3279H87.1227ZM87.4707 17.0119C87.1227 19.0639 86.5347 21.1399 85.7187 22.4719C85.9467 22.6279 86.3307 22.9879 86.4867 23.1799C87.3387 21.6919 88.0107 19.4119 88.4187 17.1919L87.4707 17.0119ZM89.1747 19.9519C88.8267 23.7199 87.8427 26.0719 85.1067 27.3319C85.2867 27.5359 85.5747 27.9679 85.6707 28.1839C88.5867 26.6839 89.7147 24.1639 90.1587 20.0359L89.1747 19.9519ZM87.6267 20.2999L86.8107 20.4199C87.3027 23.9119 88.2387 26.7439 90.3867 28.1119C90.5427 27.8359 90.8787 27.4279 91.1187 27.2359C89.0427 26.0959 88.0707 23.4199 87.6267 20.2999ZM82.6827 17.0119V23.3599H83.5587V17.0119H82.6827ZM81.5907 18.5119H84.7467V20.4439H81.5907V18.5119ZM80.7147 17.7679V21.1879H85.6587V17.7679H80.7147ZM81.4227 22.3159H84.8667V22.9999H81.4227V22.3159ZM80.4747 21.6439V23.6839H85.8627V21.6439H80.4747ZM79.8867 19.0159V19.8559H81.0387V19.7959H85.0587V19.8559H86.3187V19.0159H85.0587V19.0639H81.0387V19.0159H79.8867ZM80.6787 26.1439L81.6147 26.3359C82.1427 25.6279 82.8627 24.4999 83.3067 23.5039L82.3827 23.2999C81.9867 24.2359 81.2667 25.3999 80.6787 26.1439ZM80.6787 26.1439C82.1667 26.5159 83.9667 27.2479 84.9507 27.8239L85.6707 27.1639C84.6387 26.6119 82.8627 25.9039 81.4107 25.5439L80.6787 26.1439ZM84.2067 23.9239V24.3919C84.2067 25.3159 83.8227 26.6839 79.7907 27.4039C79.9587 27.5839 80.1747 27.9319 80.2587 28.1359C84.6147 27.3199 85.1187 25.6639 85.1187 24.4159V23.9239H84.2067ZM79.9467 24.3439V25.1359H86.2347V24.3439H79.9467ZM92.1267 20.1319V21.2839H102.795V20.1319H92.1267ZM95.5707 25.7239C96.3627 26.4319 97.3347 27.4279 97.7667 28.0639L98.7627 27.3199C98.2947 26.6839 97.2987 25.7359 96.5067 25.0759L95.5707 25.7239ZM98.2467 20.6599L97.1547 20.9239C98.0427 24.2599 99.6027 26.8639 102.267 28.1719C102.447 27.8359 102.831 27.3679 103.119 27.1159C100.599 26.0359 99.0027 23.5879 98.2467 20.6599ZM96.7947 17.0239C96.7587 20.1439 96.9267 25.0279 91.8147 27.1999C92.1387 27.4399 92.4867 27.8599 92.6667 28.1599C97.9707 25.7479 97.9827 20.4799 98.0307 17.0239H96.7947ZM105.099 19.3759C104.883 20.5159 104.439 21.5839 103.791 22.2799C104.007 22.4239 104.367 22.7599 104.511 22.9279C105.219 22.1359 105.747 20.8879 106.035 19.5559L105.099 19.3759ZM103.971 23.4319V24.4279H109.431V23.4319H103.971ZM104.019 18.2599V19.2679H109.359V18.2599H104.019ZM107.463 19.4479C107.235 20.5039 106.815 21.4879 106.191 22.1359C106.407 22.2799 106.767 22.5919 106.923 22.7479C107.607 22.0039 108.111 20.8639 108.387 19.6159L107.463 19.4479ZM104.955 20.9119C105.351 21.2359 105.807 21.6919 106.011 22.0039L106.587 21.3799C106.371 21.0799 105.891 20.6479 105.507 20.3599L104.955 20.9119ZM107.271 21.0319C107.739 21.5239 108.315 22.2079 108.579 22.6399L109.263 22.0639C108.975 21.6559 108.387 20.9959 107.919 20.5399L107.271 21.0319ZM110.235 21.7039V22.6639H114.759V21.7039H110.235ZM110.247 24.0919V25.0639H114.771V24.0919H110.247ZM110.187 26.5279V27.5599H114.963V26.5279H110.187ZM110.727 17.0479C110.307 18.6439 109.611 20.2759 108.771 21.3199C109.011 21.4879 109.443 21.8599 109.623 22.0519C110.487 20.8759 111.279 19.0759 111.783 17.2999L110.727 17.0479ZM110.967 19.2799H110.943L109.947 20.3599V28.1239H110.967V20.2999H114.891V19.2799H110.967ZM112.359 19.7479V27.0559H113.379V19.7479H112.359ZM105.891 17.2759C106.107 17.6959 106.359 18.2719 106.467 18.6319L107.571 18.3079C107.451 17.9479 107.187 17.4079 106.947 16.9999L105.891 17.2759ZM111.999 17.4919C112.299 18.0199 112.611 18.7279 112.731 19.1839L113.775 18.7999C113.631 18.3439 113.307 17.6719 112.983 17.1679L111.999 17.4919ZM105.003 25.0399C104.799 25.7719 104.451 26.5159 103.983 27.0319C104.223 27.1399 104.631 27.3799 104.811 27.5119C105.279 26.9479 105.699 26.0839 105.939 25.2199L105.003 25.0399ZM107.655 25.2919C108.027 25.9279 108.423 26.7919 108.591 27.3439L109.479 26.9959C109.311 26.4559 108.891 25.6279 108.495 24.9919L107.655 25.2919ZM106.287 22.6279V28.1119H107.355V22.6279H106.287ZM118.359 16.9039C117.795 18.0679 116.823 19.1719 115.827 19.8799C116.043 20.0839 116.379 20.5759 116.499 20.7799C117.591 19.9279 118.671 18.5959 119.355 17.2279L118.359 16.9039ZM118.155 18.3439L117.831 19.3519H126.423V18.3439H118.155ZM116.463 21.1639V22.1839H126.519V21.1639H116.463ZM116.079 24.0079V25.0279H126.771V24.0079H116.079ZM119.931 19.9399V24.5599H120.891V19.9399H119.931ZM117.843 19.9399V24.5959H118.863V19.9399H117.843ZM122.079 19.9399V24.5959H123.039V19.9399H122.079ZM124.191 19.9399V24.5959H125.235V19.9399H124.191ZM119.463 25.8079C119.595 26.5399 119.691 27.4999 119.691 28.0759L120.807 27.9079C120.795 27.3559 120.663 26.4199 120.507 25.6999L119.463 25.8079ZM121.923 25.7839C122.211 26.5159 122.499 27.4639 122.595 28.0399L123.723 27.8119C123.615 27.2359 123.291 26.2999 122.979 25.6039L121.923 25.7839ZM124.383 25.7479C124.851 26.5159 125.415 27.5359 125.643 28.1599L126.759 27.6679C126.483 27.0559 125.907 26.0599 125.427 25.3399L124.383 25.7479ZM117.423 25.3999C117.099 26.2159 116.571 27.1639 116.139 27.7399L117.243 28.1839C117.675 27.5239 118.191 26.5039 118.515 25.6879L117.423 25.3999ZM135.243 23.6839V24.6559H138.351V23.6839H135.243ZM134.763 21.8119V27.0319L135.819 27.4519V21.8119H134.763ZM133.215 24.2119L132.375 24.5239C133.155 27.3679 134.583 28.0279 136.731 28.0279H138.675C138.711 27.7279 138.867 27.2359 139.011 26.9959C138.591 26.9959 137.127 27.0079 136.827 26.9959C135.123 26.9959 133.815 26.5159 133.215 24.2119ZM133.251 17.0119C132.927 18.8119 132.231 20.3599 131.115 21.3199C131.367 21.4879 131.787 21.8959 131.943 22.0999C133.131 20.9839 133.923 19.2439 134.331 17.1919L133.251 17.0119ZM136.467 17.0239C136.215 18.8959 135.567 20.4079 134.367 21.3079C134.607 21.4639 135.075 21.7999 135.255 21.9919C136.479 20.9359 137.223 19.2799 137.547 17.1559L136.467 17.0239ZM133.023 19.5679C133.551 19.9759 134.235 20.5639 134.559 20.9359L135.099 20.0599C134.763 19.7119 134.067 19.1719 133.539 18.7879L133.023 19.5679ZM136.107 19.5919C136.899 20.2999 137.859 21.2959 138.303 21.9319L139.083 21.1759C138.615 20.5639 137.619 19.5919 136.839 18.9319L136.107 19.5919ZM132.399 22.6399C132.291 24.7639 131.871 26.4079 130.683 27.4039C130.923 27.5599 131.379 27.9439 131.547 28.1359C132.807 26.9479 133.335 25.1479 133.503 22.7239L132.399 22.6399ZM130.491 19.5199C129.819 20.7559 128.715 21.9679 127.647 22.7599C127.839 22.9999 128.163 23.5519 128.271 23.7919C129.447 22.8319 130.695 21.3439 131.499 19.8919L130.491 19.5199ZM130.239 17.0119C129.723 17.8399 128.679 18.8599 127.779 19.4839C127.959 19.6879 128.247 20.0839 128.391 20.3119C129.399 19.5799 130.527 18.4399 131.247 17.4199L130.239 17.0119ZM129.447 21.9079V28.1839H130.515V21.0199L130.395 20.9599L129.447 21.9079ZM140.067 17.8999V19.0399H150.795V17.8999H140.067ZM144.579 18.8599V28.1359H145.791V18.8599H144.579ZM145.227 21.7399C146.643 22.4839 148.491 23.6119 149.379 24.3679L150.207 23.3359C149.259 22.5919 147.375 21.5239 145.995 20.8519L145.227 21.7399ZM160.923 17.0119C159.027 17.5639 155.607 17.8759 152.739 18.0079C152.847 18.2599 152.979 18.7159 153.015 19.0039C155.931 18.8959 159.447 18.5839 161.751 17.9479L160.923 17.0119ZM152.799 20.4079V21.4999H162.207V20.4079H152.799ZM151.983 23.2159V24.3319H162.903V23.2159H151.983ZM156.855 18.4759V26.6839C156.855 26.9239 156.747 27.0079 156.483 27.0199C156.207 27.0199 155.235 27.0319 154.275 26.9959C154.455 27.2959 154.671 27.7999 154.743 28.1239C155.991 28.1359 156.819 28.1119 157.323 27.9319C157.827 27.7519 158.031 27.4279 158.031 26.6959V18.4759H156.855ZM165.555 24.3319H166.779C166.575 22.5319 168.711 21.8839 168.711 20.1439C168.711 18.7279 167.751 17.9359 166.347 17.9359C165.339 17.9359 164.535 18.4159 163.947 19.0879L164.727 19.8079C165.135 19.3519 165.627 19.0759 166.191 19.0759C166.947 19.0759 167.367 19.5679 167.367 20.2399C167.367 21.5359 165.267 22.3039 165.555 24.3319ZM166.191 27.3079C166.707 27.3079 167.115 26.8999 167.115 26.3359C167.115 25.7599 166.707 25.3639 166.191 25.3639C165.663 25.3639 165.267 25.7599 165.267 26.3359C165.267 26.8999 165.663 27.3079 166.191 27.3079Z" fill="white"/>
<path d="M189.963 36.7454H15.1361C12.2467 36.7442 9.47659 36.3189 7.43347 35.5629C5.39034 34.807 4.24107 33.782 4.23779 32.7129V4.35815C4.24107 3.28904 5.39034 2.26407 7.43347 1.50809C9.47659 0.752119 12.2467 0.326886 15.1361 0.325684H189.963C192.852 0.326883 195.622 0.752116 197.666 1.50809C199.709 2.26406 200.858 3.28904 200.861 4.35815V32.7129C200.858 33.782 199.709 34.807 197.666 35.563C195.622 36.3189 192.852 36.7442 189.963 36.7454ZM15.1361 0.880989C12.6446 0.882035 10.256 1.24871 8.49421 1.90058C6.73244 2.55245 5.74142 3.43627 5.73857 4.35815V32.7129C5.74142 33.6348 6.73244 34.5186 8.49421 35.1705C10.256 35.8223 12.6446 36.189 15.1361 36.1901H189.963C192.454 36.189 194.843 35.8223 196.605 35.1705C198.367 34.5186 199.358 33.6348 199.36 32.7129V4.35815C199.358 3.43627 198.367 2.55245 196.605 1.90058C194.843 1.24871 192.454 0.882034 189.963 0.880989H15.1361Z" fill="white"/>
</svg>
