<svg width="189" height="50" viewBox="0 0 189 50" fill="none" xmlns="http://www.w3.org/2000/svg">
<path d="M4.59107 50.0001C7.12664 50.0001 9.18213 47.8721 9.18213 45.2471C9.18213 42.6221 7.12664 40.4941 4.59107 40.4941C2.05549 40.4941 0 42.6221 0 45.2471C0 47.8721 2.05549 50.0001 4.59107 50.0001Z" fill="#6F7585"/>
<path d="M178.883 40.5322H25.1536C22.7003 40.5311 20.3484 40.1176 18.6137 39.3826C16.879 38.6475 15.9032 37.651 15.9004 36.6115V8.0592C15.9032 7.01971 16.879 6.02312 18.6137 5.28809C20.3484 4.55306 22.7003 4.1396 25.1536 4.13843H178.883C181.337 4.1396 183.689 4.55306 185.423 5.28809C187.158 6.02312 188.134 7.0197 188.137 8.0592V36.6114C188.134 37.6509 187.158 38.6475 185.423 39.3826C183.689 40.1176 181.337 40.5311 178.883 40.5322Z" fill="#6F7585"/>
<path d="M8.04134 48.6005C6.97753 48.6005 5.93761 48.3054 5.05308 47.7524C4.16855 47.1994 3.47914 46.4134 3.07203 45.4938C2.66493 44.5743 2.55841 43.5624 2.76595 42.5862C2.97349 41.6099 3.48577 40.7132 4.238 40.0094C4.99023 39.3056 5.94863 38.8263 6.992 38.6321C8.03538 38.4379 9.11686 38.5376 10.0997 38.9185C11.0825 39.2994 11.9226 39.9444 12.5136 40.772C13.1046 41.5996 13.4201 42.5726 13.4201 43.568C13.4185 44.9022 12.8513 46.1814 11.8429 47.1249C10.8346 48.0683 9.46738 48.599 8.04134 48.6005ZM8.04134 39.0946C7.09573 39.0946 6.17135 39.3569 5.3851 39.8485C4.59885 40.34 3.98604 41.0387 3.62417 41.8561C3.2623 42.6735 3.16762 43.5729 3.3521 44.4407C3.53658 45.3084 3.99194 46.1055 4.66059 46.7311C5.32924 47.3567 6.18115 47.7828 7.1086 47.9554C8.03604 48.128 8.99737 48.0394 9.871 47.7008C10.7446 47.3623 11.4913 46.7889 12.0167 46.0533C12.5421 45.3176 12.8225 44.4527 12.8225 43.568C12.821 42.382 12.3168 41.2449 11.4205 40.4063C10.5242 39.5677 9.30893 39.0959 8.04134 39.0946Z" fill="#6F7585"/>
<path d="M175.106 36.4192H32.4349C30.0769 36.4179 27.8163 35.9927 26.1489 35.2367C24.4816 34.4807 23.5437 33.4557 23.541 32.3866V4.03241C23.5437 2.96331 24.4816 1.93835 26.1489 1.18239C27.8163 0.426426 30.0769 0.00119929 32.4349 0H175.106C177.464 0.00119929 179.725 0.426426 181.392 1.18239C183.059 1.93835 183.997 2.96331 184 4.03241V32.3866C183.997 33.4557 183.059 34.4807 181.392 35.2367C179.725 35.9927 177.464 36.4179 175.106 36.4192ZM32.4349 0.555298C30.4017 0.55634 28.4523 0.923008 27.0146 1.57487C25.5769 2.22672 24.7681 3.11054 24.7658 4.03241V32.3866C24.768 33.3085 25.5768 34.1924 27.0145 34.8442C28.4523 35.4961 30.4016 35.8628 32.4349 35.8639H175.106C177.139 35.8628 179.089 35.4961 180.527 34.8442C181.964 34.1924 182.773 33.3085 182.775 32.3866V4.03241C182.773 3.11054 181.964 2.22673 180.526 1.57487C179.089 0.923017 177.139 0.556343 175.106 0.555298H32.4349Z" fill="white"/>
<path d="M50.6675 17.703V18.711H58.7555V17.703H50.6675ZM52.2635 22.803V23.523H53.2115V22.803H52.2635ZM54.1115 20.319V27.723H55.1195V20.319H54.1115ZM57.4355 21.279V26.799C57.4355 26.931 57.3995 26.967 57.2675 26.967C57.1355 26.979 56.6915 26.979 56.2475 26.967C56.3555 27.207 56.4755 27.555 56.5115 27.807C57.2315 27.807 57.7235 27.807 58.0355 27.663C58.3595 27.519 58.4555 27.279 58.4555 26.799V21.279H57.4355ZM50.8955 21.279V27.819H51.8675V22.239H57.9395V21.279H50.8955ZM48.1475 17.631C48.8195 17.967 49.6475 18.507 50.0315 18.903L50.7155 17.991C50.2955 17.607 49.4675 17.115 48.7955 16.815L48.1475 17.631ZM47.6555 20.859C48.3395 21.159 49.1795 21.663 49.5875 22.035L50.2475 21.111C49.8275 20.739 48.9755 20.295 48.2795 20.019L47.6555 20.859ZM47.8835 27.099L48.9035 27.699C49.4195 26.559 49.9835 25.119 50.4155 23.847L49.5035 23.259C49.0235 24.627 48.3635 26.175 47.8835 27.099ZM52.3955 16.683V20.547H56.9435V16.683H55.8275V19.575H53.4755V16.683H52.3955ZM52.7075 22.803V23.151H52.8635C52.9235 24.519 53.2115 25.623 53.7635 26.235C53.8715 26.067 54.1235 25.839 54.2675 25.755C53.7395 25.239 53.4755 24.159 53.4275 22.803H52.7075ZM52.6955 23.919C52.6235 24.639 52.3715 25.419 51.8315 25.875C51.9755 25.971 52.1915 26.199 52.2875 26.343C52.9475 25.767 53.2355 24.855 53.3435 23.919H52.6955ZM55.4915 22.803V23.523H56.4035V22.803H55.4915ZM55.9235 22.803V23.151H56.0795C56.1395 24.519 56.4635 25.599 57.0395 26.211C57.1595 26.043 57.4115 25.827 57.5675 25.719C57.0035 25.227 56.7035 24.159 56.6555 22.803H55.9235ZM55.9235 23.907C55.8515 24.603 55.5995 25.347 55.0355 25.767C55.2035 25.863 55.4075 26.091 55.5035 26.235C56.1875 25.683 56.4755 24.819 56.5835 23.907H55.9235ZM65.2595 23.163V24.231H69.9155V23.163H65.2595ZM62.6675 23.751L61.7315 24.111C62.8715 27.075 64.9235 27.699 67.8515 27.699H70.4675C70.5275 27.387 70.7075 26.859 70.8755 26.595C70.2875 26.607 68.3555 26.619 67.9115 26.607C65.4875 26.607 63.5315 26.151 62.6675 23.751ZM64.7435 21.171V26.751L65.9195 27.123V21.171H64.7435ZM62.3435 18.339H68.3675V20.391H62.3435V18.339ZM61.2155 17.259V21.471H69.5555V17.259H61.2155ZM61.8395 22.287C61.6595 23.991 61.0955 25.995 59.7275 27.051C59.9675 27.231 60.3515 27.603 60.5315 27.819C62.0555 26.631 62.7275 24.411 63.0275 22.431L61.8395 22.287ZM72.0635 17.523V18.687H82.4555V17.523H72.0635ZM77.9075 21.255C79.2875 22.239 81.0755 23.679 81.9035 24.615L82.8515 23.739C81.9635 22.803 80.1275 21.435 78.7715 20.523L77.9075 21.255ZM77.5715 17.943C76.5035 20.139 74.3195 22.455 71.7275 23.715C71.9675 23.979 72.3275 24.435 72.5075 24.735C75.2435 23.295 77.4515 20.895 78.8195 18.387L77.5715 17.943ZM76.6355 20.559V27.819H77.8715V19.335L76.6355 20.559ZM88.7075 20.907V26.439C88.7075 26.643 88.6235 26.715 88.3595 26.715C88.0835 26.727 87.1355 26.739 86.1995 26.703C86.3795 27.015 86.5955 27.519 86.6555 27.843C87.8435 27.855 88.6715 27.831 89.1995 27.663C89.7275 27.483 89.8955 27.159 89.8955 26.463V20.907H88.7075ZM84.3995 17.595V18.711H92.9435V17.595H84.3995ZM92.6075 17.595V17.871C91.8515 18.819 90.1595 20.163 88.7075 20.907C88.9355 21.099 89.2955 21.471 89.4635 21.711C91.0835 20.883 92.8955 19.479 94.0715 18.195L93.1715 17.523L92.9195 17.595H92.6075ZM98.2355 19.455V20.427H104.296V19.455H98.2355ZM98.8235 21.531V26.295H99.8675V21.531H98.8235ZM99.3995 21.531V22.479H102.64V24.495H99.3995V25.443H103.696V21.531H99.3995ZM96.2435 17.295V27.855H97.3475V18.375H105.832V17.295H96.2435ZM105.172 17.295V26.463C105.172 26.667 105.1 26.739 104.884 26.751C104.68 26.763 103.984 26.763 103.276 26.739C103.456 27.027 103.624 27.543 103.672 27.843C104.704 27.855 105.328 27.819 105.736 27.639C106.144 27.459 106.288 27.111 106.288 26.475V17.295H105.172ZM112.636 16.695V26.667C112.636 26.883 112.564 26.955 112.336 26.967C112.132 26.967 111.412 26.979 110.764 26.955C110.908 27.195 111.088 27.603 111.148 27.867C112.156 27.867 112.792 27.855 113.212 27.711C113.62 27.543 113.788 27.291 113.788 26.667V16.695H112.636ZM108.028 17.583V18.495H118.504V17.583H108.028ZM110.356 19.863H116.152V20.595H110.356V19.863ZM109.276 19.107V21.351H117.316V19.107H109.276ZM108.952 22.059V22.863H116.356V26.571H117.508V22.059H108.952ZM107.776 23.559V24.435H118.756V23.559H107.776ZM108.844 25.191V26.043H116.968V25.191H108.844ZM120.892 18.639V19.635H123.52V25.575H120.892V26.583H124.552V18.639H120.892ZM120.22 18.639V27.507H121.264V18.639H120.22ZM120.832 21.915V22.911H124.036V21.915H120.832ZM122.008 16.683C121.924 17.319 121.72 18.231 121.528 18.831L122.44 19.047C122.68 18.495 122.98 17.655 123.232 16.875L122.008 16.683ZM126.208 18.579V19.623H129.82V18.579H126.208ZM129.424 18.579V18.807C129.28 23.967 129.1 25.995 128.704 26.415C128.572 26.583 128.428 26.619 128.188 26.619C127.9 26.619 127.18 26.607 126.4 26.547C126.604 26.847 126.748 27.327 126.772 27.651C127.456 27.675 128.176 27.699 128.608 27.651C129.064 27.591 129.364 27.471 129.652 27.075C130.144 26.463 130.3 24.579 130.468 19.119C130.48 18.975 130.48 18.579 130.48 18.579H129.424ZM126.364 16.671C125.98 18.303 125.32 19.947 124.504 20.991C124.768 21.135 125.236 21.459 125.44 21.639C126.256 20.499 127 18.711 127.456 16.923L126.364 16.671ZM125.8 21.843C126.424 22.719 127.204 23.907 127.552 24.639L128.524 24.051C128.14 23.343 127.324 22.179 126.688 21.339L125.8 21.843ZM137.776 18.435V19.479H142.588V18.435H137.776ZM136.408 22.107V23.199H142.852V22.107H136.408ZM139.084 18.879V27.831H140.236V18.879H139.084ZM137.788 16.671C137.452 18.243 136.816 19.803 135.976 20.787C136.264 20.919 136.756 21.231 136.984 21.411C137.812 20.331 138.508 18.639 138.928 16.899L137.788 16.671ZM132.244 20.355V21.231H136.048V20.355H132.244ZM132.244 21.975V22.851H136.048V21.975H132.244ZM131.668 18.687V19.611H136.516V18.687H131.668ZM132.772 23.607V24.531H135.004V26.259H132.772V27.183H136.012V23.607H132.772ZM132.22 23.607V27.699H133.216V23.607H132.22ZM133.228 17.055C133.516 17.583 133.744 18.291 133.792 18.759L134.68 18.399C134.608 17.943 134.356 17.247 134.056 16.743L133.228 17.055ZM144.556 17.223V18.207H149.38V17.223H144.556ZM145.852 24.195C145.696 25.023 145.456 25.863 145.084 26.439C145.3 26.535 145.696 26.739 145.864 26.871C146.236 26.247 146.548 25.287 146.716 24.375L145.852 24.195ZM148.3 24.423C148.576 25.047 148.876 25.887 148.984 26.391L149.776 26.079C149.656 25.587 149.344 24.783 149.044 24.171L148.3 24.423ZM144.244 17.223V21.759C144.244 23.403 144.184 25.575 143.524 27.087C143.74 27.183 144.172 27.495 144.34 27.663C145.096 26.043 145.216 23.523 145.216 21.747V17.223H144.244ZM146.644 21.843H148.444V22.839H146.644V21.843ZM146.644 20.103H148.444V21.075H146.644V20.103ZM145.756 19.287V23.655H149.368V19.287H145.756ZM147.088 23.463V26.823C147.088 26.931 147.052 26.967 146.932 26.967C146.812 26.979 146.476 26.979 146.08 26.967C146.2 27.207 146.344 27.579 146.38 27.831C146.968 27.831 147.364 27.819 147.652 27.675C147.952 27.519 148.012 27.279 148.012 26.835V23.463H147.088ZM147.052 17.907C147.028 18.387 146.908 19.107 146.812 19.587L147.676 19.755C147.82 19.311 148 18.663 148.168 18.039L147.052 17.907ZM149.62 17.223V18.183H154.732V17.223H149.62ZM150.952 21.867H153.436V22.863H150.952V21.867ZM150.952 23.667H153.436V24.687H150.952V23.667ZM150.952 20.067H153.436V21.051H150.952V20.067ZM149.992 19.215V25.539H154.444V19.215H149.992ZM151.648 17.715C151.612 18.279 151.48 19.095 151.36 19.635L152.272 19.803C152.428 19.299 152.62 18.555 152.812 17.847L151.648 17.715ZM150.952 25.707C150.52 26.199 149.668 26.811 148.924 27.147C149.14 27.339 149.464 27.651 149.632 27.855C150.388 27.495 151.3 26.859 151.864 26.247L150.952 25.707ZM152.5 26.247C153.076 26.715 153.808 27.399 154.144 27.843L155.008 27.255C154.636 26.811 153.892 26.163 153.328 25.719L152.5 26.247ZM157.384 24.015H158.608C158.404 22.215 160.54 21.567 160.54 19.827C160.54 18.411 159.58 17.619 158.176 17.619C157.168 17.619 156.364 18.099 155.776 18.771L156.556 19.491C156.964 19.035 157.456 18.759 158.02 18.759C158.776 18.759 159.196 19.251 159.196 19.923C159.196 21.219 157.096 21.987 157.384 24.015ZM158.02 26.991C158.536 26.991 158.944 26.583 158.944 26.019C158.944 25.443 158.536 25.047 158.02 25.047C157.492 25.047 157.096 25.443 157.096 26.019C157.096 26.583 157.492 26.991 158.02 26.991Z" fill="white"/>
</svg>
